<svg width="450" height="90" viewBox="0 0 450 90" fill="none" xmlns="http://www.w3.org/2000/svg">
<path d="M141.593 22C146.282 22.7685 150.691 25.3535 153.49 29.196C154.05 29.9645 154.61 30.8029 155.029 31.7111C153.21 32.9686 151.39 34.1563 149.641 35.4139C149.361 35.6235 149.151 35.7632 148.801 35.9029C147.961 33.807 146.492 31.9207 144.602 30.6631C143.203 29.7549 141.593 29.1261 139.983 28.7768C140.473 26.5412 141.033 24.3055 141.593 22ZM124.657 24.0261C126.827 23.3274 129.346 24.4452 130.256 26.4713C131.026 28.0083 130.816 30.0344 129.766 31.3618C128.436 33.0385 125.917 33.6673 124.028 32.6892C122.768 32.0604 121.788 30.8727 121.508 29.4754C121.298 28.4275 121.368 27.3097 121.928 26.3316C122.488 25.2137 123.538 24.4452 124.657 24.0261ZM115 47.8497C117.589 47.7798 120.109 47.8497 122.698 47.8497C123.188 50.6442 124.378 53.2991 126.267 55.395C127.737 57.0717 129.626 58.2594 131.656 59.0279C134.455 60.0759 137.534 60.2156 140.473 59.517C143.133 58.8882 145.512 57.421 147.262 55.2553C148.451 53.7881 149.361 52.1114 149.851 50.2949C152.16 50.9237 154.33 51.7621 156.639 52.4607C156.569 53.1593 156.289 53.858 156.009 54.5566C154.47 58.5389 151.6 61.9622 147.891 64.128C145.512 65.5253 142.783 66.4335 140.053 66.7828C134.665 67.4814 128.996 66.3636 124.448 63.3595C121.998 61.7526 119.829 59.5868 118.289 57.0717C116.47 54.4169 115.42 51.2031 115 47.8497Z" fill="#28BB4E"/>
<path d="M162.797 41.5618C166.086 36.2522 173.364 33.8069 179.173 36.2522C180.992 36.9508 182.252 38.418 183.302 40.0248C183.232 38.7673 183.232 37.5097 183.232 36.1823H190.23C190.37 46.1729 189.95 56.1634 190.51 66.154H183.652C183.582 64.7567 183.512 63.4293 183.442 62.032C179.873 68.3896 170.565 68.18 165.526 63.8484C159.298 58.3991 158.458 48.3386 162.797 41.5618ZM173.434 41.7016C166.996 43.3084 165.876 51.9716 168.816 57.0018C171.055 61.1237 177.353 61.9621 180.572 58.5388C183.792 55.1853 184.072 49.7359 182.182 45.6139C180.712 42.4002 176.793 40.8632 173.434 41.7016ZM225.991 38.3481C231.099 34.1563 239.007 34.2261 244.256 38.2084C248.665 41.7016 249.854 47.7099 249.434 53.0195C242.086 53.0894 234.668 53.0195 227.32 53.0195C227.67 55.9538 229.28 58.958 232.149 60.0758C236.278 62.1018 241.736 60.1457 243.206 55.6744C245.235 56.3031 247.195 56.9319 249.224 57.4908C248.105 60.5648 246.075 63.4293 243.136 65.0361C237.398 68.3197 229.42 67.3416 224.731 62.5909C218.293 56.1634 218.782 44.0769 225.991 38.3481ZM229.28 43.7276C228.23 44.8454 227.88 46.3825 227.46 47.7797C232.429 47.7797 237.467 47.9195 242.436 47.64C241.946 45.8235 241.386 43.8673 239.777 42.6797C236.768 40.444 231.799 40.7235 229.28 43.7276ZM260.142 38.0686C264.97 34.3658 272.038 34.3658 277.147 37.5097C282.186 40.7933 283.865 47.3605 283.165 53.0195C275.817 52.9497 268.469 53.0195 261.121 53.0195C261.471 54.7661 261.891 56.5826 263.081 57.91C265.74 61.1936 271.059 61.8224 274.418 59.3073C275.677 58.3991 276.237 56.862 277.147 55.7442C279.107 56.2333 281.066 56.9319 283.026 57.5607C281.906 60.7046 279.806 63.569 276.797 65.1759C271.129 68.2499 263.431 67.4115 258.812 62.8703C251.954 56.373 252.514 43.7276 260.142 38.0686ZM262.941 43.7975C261.961 44.9153 261.611 46.3825 261.191 47.7797H276.097C275.747 46.0331 275.258 44.1468 273.788 42.8893C270.779 40.3741 265.53 40.5837 262.941 43.7975ZM296.882 39.8152C300.871 33.6672 311.438 33.7371 314.797 40.444C318.016 34.9248 326.064 33.6672 331.103 37.37C333.832 39.4659 335.092 42.9591 335.092 46.3126C335.162 52.8798 335.092 59.447 335.092 66.0142H328.164V48.3386C328.164 46.5222 327.884 44.566 326.624 43.2386C323.965 40.5837 318.856 41.2824 317.107 44.6359C316.197 46.1729 316.197 48.0592 316.197 49.7359V66.0142H309.199C309.129 59.6566 309.269 53.299 309.129 47.0112C309.129 44.2167 306.819 41.6317 303.95 41.7016C300.591 41.2125 297.442 43.9372 297.232 47.2208C297.022 53.5086 297.232 59.7963 297.162 66.0142H290.094V36.0426H296.952C296.952 37.37 296.952 38.6275 296.882 39.8152ZM199.328 36.1124H206.326C206.326 37.6495 206.256 39.2563 206.256 40.7933C208.215 36.8809 212.764 35.2741 216.893 35.833V43.1687C214.444 43.0988 211.714 42.8194 209.615 44.3564C207.375 45.8235 206.606 48.688 206.536 51.2031C206.466 56.1634 206.536 61.1237 206.466 66.0841H199.328V36.1124Z" fill="#28BB4E"/>
</svg>
