<svg width="450" height="90" viewBox="0 0 450 90" fill="none" xmlns="http://www.w3.org/2000/svg">
<path fill-rule="evenodd" clip-rule="evenodd" d="M100 59.3768H248.468V30H100V59.3768Z" fill="#13110E"/>
<path fill-rule="evenodd" clip-rule="evenodd" d="M181.85 36.6688L182.427 37.032C182.587 37.1307 182.602 37.1982 182.602 37.2551V42.2726H171.543L169.042 45.4438V37.277L169.06 37.1182L169.188 37.032L169.709 36.7032L169.768 36.6751V36.1738H164.245V36.6688L164.794 37.0207L164.91 37.107H164.923V52.1094L164.899 52.31L164.794 52.4069L164.245 52.78V53.2607H169.768V52.765L169.188 52.4032L169.06 52.3269L169.042 52.3313V45.4438L169.633 45.6232L170.405 45.1863L170.748 45.0226C170.797 45.0094 170.885 44.9857 171.063 44.9857H182.58V50.2657L186.703 45.8488V37.107L186.781 36.9795L187.385 36.6788V36.1738H181.85V36.6688Z" fill="#FEFEFE"/>
<path fill-rule="evenodd" clip-rule="evenodd" d="M241.283 42.8619C240.641 40.8131 239.154 39.1337 236.878 37.8625C234.821 36.7144 231.913 36.1562 227.982 36.1562H212.964V36.6469L213.611 37.0669L213.614 37.0644V38.8456H227.956C230.855 38.8456 232.973 39.23 234.269 39.9837C236.319 41.18 237.318 42.7381 237.321 44.7275C237.321 45.7294 237.048 46.6456 236.522 47.4575C235.998 48.2556 235.19 48.9469 234.123 49.4887C232.75 50.21 230.623 50.5737 227.836 50.5737H220.358V40.0694H216.265L216.274 52.1318L216.243 52.3087L216.136 52.4187L215.632 52.7325L215.593 52.7668V53.2593H227.85C230.213 53.2593 232.064 53.1231 233.366 52.8581C235.148 52.4875 236.733 51.8387 238.059 50.9325C239.424 50.0162 240.406 48.96 240.958 47.7781C241.383 46.9187 241.59 45.9644 241.59 44.9512C241.59 44.2262 241.49 43.5225 241.283 42.8619Z" fill="#FEFEFE"/>
<path fill-rule="evenodd" clip-rule="evenodd" d="M195.056 39.3066L181.733 53.2229H187.87V52.6422H187.66L187.368 52.6122L187.143 52.5491L197.433 41.8398L195.056 39.3066Z" fill="#FEFEFE"/>
<path fill-rule="evenodd" clip-rule="evenodd" d="M208.65 52.6973V53.2811H214.78L198.53 36.168L196.158 38.6417L198.788 41.4342L201.515 44.1717H196.911L194.396 46.8104L194.935 47.1836L195.536 46.8617L195.701 46.8104C195.74 46.7986 195.893 46.7986 196.13 46.7986H203.988L209.413 52.5979C209.413 52.5979 209.326 52.6973 208.858 52.6973H208.65Z" fill="#FEFEFE"/>
<path fill-rule="evenodd" clip-rule="evenodd" d="M161.753 37.0101L162.249 36.6738V36.1738H156.774V36.6738L157.328 37.0201L157.516 37.2538L157.523 52.1044L157.484 52.2932L157.334 52.4057L156.774 52.7657V53.2694H162.249V52.7757L161.744 52.4169L161.622 52.3357L161.608 52.3407V37.2813L161.629 37.1176L161.753 37.0101Z" fill="#FEFEFE"/>
<path fill-rule="evenodd" clip-rule="evenodd" d="M134.645 49.9695H134.423L133.813 49.9839L133.095 50.402C132.906 50.5133 132.796 50.5495 132.777 50.5639L120.523 50.5983C117.72 50.5983 115.589 50.2251 114.199 49.5164C112.085 48.4189 111.056 46.857 111.048 44.7345C111.048 43.7851 111.324 42.8833 111.873 42.0514C112.923 40.5001 114.445 39.4345 116.628 39.0314C117.212 38.9277 117.768 38.9027 118.134 38.9027H124.44C124.823 38.8845 124.764 38.9783 124.772 39.0183L124.707 39.4627H125.23L127.938 36.1914H120.392C118.65 36.1914 117.288 36.2489 116.345 36.3639C115.844 36.4258 115.377 36.5045 114.912 36.6152C113.682 36.8958 112.48 37.3658 111.336 38.0064C109.49 39.0589 108.169 40.3845 107.406 41.9626C106.982 42.8626 106.763 43.8664 106.771 44.9414C106.763 47.7076 108.253 49.8964 111.182 51.4789C112.503 52.2083 113.989 52.7139 115.598 52.9726C116.808 53.1726 118.467 53.2726 120.532 53.2726H131.924L134.645 49.9695Z" fill="#FEFEFE"/>
<path fill-rule="evenodd" clip-rule="evenodd" d="M128.375 45.8768L131.029 42.5537H113.159L111.366 45.2406H127.47C127.77 45.2762 127.878 45.3481 127.888 45.4031L127.825 45.8768H128.375Z" fill="#FEFEFE"/>
<path fill-rule="evenodd" clip-rule="evenodd" d="M129.764 36.1738L127.271 39.3044L127.781 39.4807L127.856 39.4976L128.622 39.1076C128.841 38.9619 129.06 38.8963 129.284 38.8963H139.158V52.1263L139.113 52.3088L138.992 52.4032L138.429 52.7825V53.2707H143.944V52.7694L143.377 52.4238L143.236 52.2969L143.225 52.1501V38.8963H151.99C152.324 38.9344 152.363 39.0107 152.363 39.0107V39.4876H152.858L155.577 36.1738H129.764Z" fill="#FEFEFE"/>
<path fill-rule="evenodd" clip-rule="evenodd" d="M265.266 36.0127H267.473L274.244 53.2602H270.745L269.375 49.6839H264.886L263.922 47.2233H268.461L266.661 42.4808L266.179 40.9839L265.697 42.4808L261.639 53.2602H258.417L265.266 36.0127Z" fill="#1D1D1B"/>
<path fill-rule="evenodd" clip-rule="evenodd" d="M285.096 45.2446C287.226 45.2446 287.938 43.8502 287.938 41.8464C287.938 39.8927 287.226 38.6758 285.071 38.6758H282.915V45.2446H285.096ZM284.818 47.6033H282.915V53.2595H279.567V36.0127H285.096C289.104 36.0127 291.336 37.8133 291.336 41.5164C291.336 44.1796 290.093 46.2596 287.836 47.1471L292.528 53.2595H288.774L284.818 47.6033Z" fill="#1D1D1B"/>
<path fill-rule="evenodd" clip-rule="evenodd" d="M297.83 36.0127H309.091L308.203 38.8789H301.177V43.0133H306.276V45.6508H301.177V50.3939H308.203L309.091 53.2602H297.83V36.0127Z" fill="#1D1D1B"/>
<path fill-rule="evenodd" clip-rule="evenodd" d="M315.129 36.0127H317.944L325.858 47.2233H325.908V36.0127H328.901V53.2602H326.466L318.172 41.5677H318.121V53.2602H315.129V36.0127Z" fill="#1D1D1B"/>
<path fill-rule="evenodd" clip-rule="evenodd" d="M341.021 36.0127H343.227L350 53.2602H346.5L345.13 49.6839H340.641L339.677 47.2233H344.217L342.416 42.4808L341.934 40.9839L341.452 42.4808L337.394 53.2602H334.172L341.021 36.0127Z" fill="#1D1D1B"/>
</svg>
