<svg width="450" height="90" viewBox="0 0 450 90" fill="none" xmlns="http://www.w3.org/2000/svg">
<g clip-path="url(#clip0_119_846)">
<path fill-rule="evenodd" clip-rule="evenodd" d="M225.841 16.6015C226.294 16.2144 226.054 15.3468 226.748 15.2C227.229 15.0665 227.509 15.5137 227.742 15.8407C227.582 15.903 227.422 15.9697 227.262 16.0409C227.175 15.9208 227.002 15.6738 226.915 15.5537C226.762 15.8207 226.661 16.121 226.601 16.4213C226.955 16.428 227.309 16.4347 227.662 16.4414C227.662 16.5548 227.656 16.7817 227.656 16.8952C227.055 16.8952 226.461 16.8952 225.861 16.8885C225.854 16.8151 225.847 16.675 225.841 16.6015ZM184.648 17.042C184.675 16.6216 184.688 16.0142 185.222 15.9208C185.649 15.774 186.009 16.081 186.196 16.4347C186.083 16.5615 185.956 16.675 185.836 16.7951C185.723 16.6616 185.502 16.3946 185.389 16.2545C185.269 16.5281 185.162 16.8018 185.069 17.0821C185.529 17.1555 186.243 16.9086 186.276 17.596C185.649 17.6294 185.022 17.6227 184.395 17.6294C184.368 17.5426 184.315 17.3624 184.288 17.2756C184.381 17.2156 184.562 17.1021 184.648 17.042ZM177.049 17.4158C177.343 17.4158 177.636 17.4158 177.93 17.4158C177.936 19.378 177.93 21.3468 177.93 23.309C177.996 24.1967 177.276 24.9909 176.442 25.1844C175.354 25.4914 174.107 24.6238 174.047 23.4892C174.013 22.6683 174.04 21.8474 174.047 21.0265C174.345 21.0309 174.643 21.0354 174.941 21.0398C174.961 21.834 174.901 22.6416 174.974 23.4358C175.061 24.1232 175.955 24.5637 176.535 24.1433C176.962 23.8963 177.069 23.3624 177.049 22.9086C177.049 21.0799 177.036 19.2512 177.049 17.4158ZM186.91 17.4091C187.217 17.4136 187.524 17.418 187.831 17.4225C187.838 19.0509 187.851 20.6794 187.831 22.3079C187.864 23.0287 187.29 23.6894 186.563 23.7361C185.556 23.7962 184.542 23.7495 183.534 23.7495C183.534 23.4425 183.534 23.1288 183.534 22.8218C184.475 22.7951 185.416 22.8418 186.356 22.8018C186.637 22.8285 186.923 22.6149 186.89 22.3212C186.93 20.6794 186.877 19.0443 186.91 17.4091ZM188.712 17.4158C189.005 17.4158 189.305 17.4158 189.606 17.4158C189.706 19.5248 189.639 21.6405 189.606 23.7495C189.308 23.7495 189.007 23.7495 188.705 23.7495C188.712 21.6405 188.705 19.5315 188.712 17.4158ZM209.575 17.4425C209.862 17.4091 210.148 17.4024 210.435 17.3891C210.469 18.3368 210.449 19.2779 210.449 20.2189C211.156 19.7517 211.91 19.1978 212.804 19.2912C213.625 19.3045 214.312 20.032 214.425 20.8196C214.505 21.4403 214.512 22.081 214.418 22.7017C214.292 23.3557 213.625 23.7695 212.991 23.7562C211.963 23.7762 210.942 23.7495 209.922 23.7628C209.088 23.7495 208.234 23.8496 207.433 23.5559C206.999 23.7094 206.552 23.7895 206.092 23.7628C203.79 23.7361 201.475 23.7962 199.173 23.7361C199.113 23.6961 199 23.616 198.94 23.576C198.759 22.9353 198.9 22.2345 198.866 21.5737C198.833 21.1466 198.993 20.566 198.546 20.3057C198.199 20.0053 197.619 20.3657 197.625 20.7929C197.572 22.0076 197.665 23.2222 197.592 24.4302C197.599 24.8908 197.011 24.7973 196.705 24.8374C195.757 24.8307 194.81 24.8974 193.869 24.784C192.701 24.6238 191.921 23.2423 192.381 22.1611C192.568 21.5137 193.168 21.1399 193.722 20.8262C193.882 21.0865 194.042 21.3468 194.203 21.6071C193.849 21.8674 193.375 22.0676 193.242 22.5281C192.995 23.1421 193.529 23.8429 194.169 23.883C195.003 23.9297 195.837 23.883 196.664 23.8963C196.698 22.8018 196.624 21.7005 196.698 20.606C196.791 19.4447 198.373 18.8507 199.22 19.6316C200.141 20.4191 199.714 21.7606 199.8 22.8151C202.162 22.7951 204.531 22.8485 206.893 22.7817C206.926 21.6872 206.859 20.5926 206.919 19.4981C207.193 19.398 207.493 19.4113 207.773 19.4914C207.907 20.586 207.8 21.6939 207.833 22.7951C208.387 22.8151 208.954 22.8151 209.515 22.8151C209.541 21.0265 209.421 19.2245 209.575 17.4425ZM210.455 21.3802C210.455 21.8607 210.449 22.3346 210.449 22.8151C211.369 22.7951 212.283 22.8552 213.204 22.7817C213.658 22.6616 213.491 22.0943 213.538 21.7539C213.578 21.1733 213.518 20.339 212.797 20.2322C211.883 20.1789 211.136 20.8596 210.455 21.3802ZM226.288 17.4091C226.581 17.4492 226.955 17.3223 227.195 17.5025C227.249 19.5849 227.209 21.6672 227.209 23.7495C226.908 23.7495 226.601 23.7562 226.301 23.7562C226.254 21.6405 226.274 19.5248 226.288 17.4091ZM234.921 17.4358C235.228 17.4158 235.528 17.4024 235.842 17.3958C235.889 19.1978 235.829 20.9998 235.875 22.8018C238.537 22.8151 241.2 22.8351 243.855 22.7884C243.882 21.6538 243.822 20.5192 243.902 19.3846C244.195 19.4514 244.556 19.3579 244.796 19.5782C244.842 20.6527 244.796 21.7272 244.809 22.7951C245.583 22.8218 246.35 22.8151 247.124 22.8018C247.144 21.6872 247.118 20.5793 247.138 19.4714C247.451 19.4781 247.758 19.4847 248.072 19.4981C248.052 20.5793 248.105 21.6538 248.052 22.735C248.025 23.329 247.458 23.7829 246.877 23.7562C246.05 23.7695 245.196 23.8363 244.409 23.5559C244.028 23.6761 243.635 23.7829 243.234 23.7628C241.059 23.7562 238.891 23.7562 236.716 23.7628C236.289 23.7762 235.875 23.6761 235.468 23.5559C234.267 23.943 232.98 23.7028 231.739 23.7495C230.491 23.7628 229.55 22.388 229.937 21.2133C230.117 20.4992 230.751 20.0721 231.365 19.7584C231.507 20.0298 231.648 20.3012 231.785 20.5726C231.419 20.8329 230.878 21.0465 230.825 21.5604C230.665 22.141 231.138 22.8018 231.745 22.8018C232.8 22.8351 233.847 22.8084 234.901 22.8018C234.941 21.0131 234.908 19.2245 234.921 17.4358ZM211.87 17.636C212.15 17.636 212.43 17.6494 212.704 17.6561C212.708 17.9586 212.71 18.2612 212.71 18.5637C212.43 18.5704 212.15 18.5771 211.876 18.5771C211.868 18.2612 211.865 17.9475 211.87 17.636ZM243.895 17.6761C244.18 17.6761 244.467 17.6761 244.756 17.6761C244.747 17.9786 244.736 18.2812 244.722 18.5837C244.449 18.5771 244.182 18.5704 243.908 18.5637C243.899 18.2701 243.895 17.9742 243.895 17.6761ZM184.802 18.0698C185.1 18.0654 185.4 18.0609 185.703 18.0565C185.749 19.5181 185.723 20.9797 185.716 22.4414C185.409 22.4414 185.102 22.4414 184.802 22.4347C184.802 20.9797 184.795 19.5248 184.802 18.0698ZM232.526 20.1054C232.506 19.6249 232.659 18.9241 233.273 18.9575C233.767 18.8707 233.974 19.3913 234.141 19.745C233.794 19.6983 233.467 19.5782 233.133 19.4914C233.06 19.705 233.013 19.9252 232.96 20.1455C233.407 20.2256 234.154 19.9653 234.141 20.646C233.507 20.6661 232.873 20.6594 232.239 20.6661C232.226 20.5726 232.199 20.3991 232.179 20.3123C232.266 20.2589 232.439 20.1588 232.526 20.1054ZM180.118 19.3713C181.172 19.0042 182.46 19.705 182.627 20.8329C182.707 21.7806 182.66 22.7417 182.66 23.6961C182.687 24.537 182.02 25.3179 181.199 25.4647C180.719 25.5248 180.225 25.4981 179.745 25.4981C179.738 25.1911 179.738 24.8841 179.778 24.5771C180.245 24.5237 180.719 24.5704 181.186 24.5037C181.486 24.3635 181.626 24.0431 181.813 23.7895C180.985 23.7428 180.005 23.8896 179.384 23.2089C178.37 22.1344 178.59 19.8852 180.118 19.3713ZM180.312 20.3123C179.604 20.6394 179.671 21.5737 179.825 22.2144C180.131 22.982 181.059 22.8018 181.719 22.8218C181.706 22.1744 181.766 21.5203 181.673 20.873C181.493 20.3524 180.819 20.0254 180.312 20.3123ZM215.399 20.6394C215.74 19.3112 217.614 18.824 218.562 19.7984C219.449 20.5393 219.095 21.8007 219.156 22.8084C220.937 22.8018 222.718 22.8285 224.5 22.7951C224.546 21.7005 224.473 20.5993 224.54 19.5048C224.813 19.4247 225.107 19.438 225.387 19.4314C225.407 20.5259 225.42 21.6271 225.394 22.7284C225.414 23.3157 224.847 23.7695 224.293 23.7495C222.605 23.7762 220.91 23.7562 219.222 23.7562C219.095 24.2701 218.915 24.7973 218.468 25.1177C217.841 25.665 216.954 25.4714 216.193 25.4714C216.227 25.1644 216.267 24.8574 216.307 24.5437C216.754 24.537 217.214 24.5837 217.668 24.5037C217.988 24.3902 218.135 24.0431 218.328 23.7829C217.514 23.7361 216.54 23.903 215.926 23.2289C215.186 22.5882 215.292 21.5137 215.399 20.6394ZM216.774 20.339C216.1 20.7061 216.187 21.6271 216.353 22.2478C216.68 22.9886 217.588 22.7951 218.235 22.8218C218.228 22.2078 218.268 21.5871 218.208 20.9797C218.095 20.3724 217.301 19.992 216.774 20.339ZM206.933 24.497C207.217 24.5014 207.504 24.5081 207.793 24.517C207.787 24.7973 207.787 25.0843 207.753 25.3713C207.48 25.4113 207.206 25.4113 206.933 25.418C206.928 25.111 206.928 24.804 206.933 24.497ZM223.979 24.5437C224.26 24.5037 224.546 24.497 224.833 24.4836C224.833 24.784 224.833 25.0776 224.8 25.3713C224.6 25.4113 224.4 25.4447 224.2 25.418C223.779 25.378 224.006 24.824 223.979 24.5437ZM246.61 24.5037C246.904 24.5037 247.198 24.5103 247.491 24.5237C247.491 24.8084 247.491 25.091 247.491 25.3713C247.198 25.3757 246.904 25.378 246.61 25.378C246.606 25.0843 246.606 24.7929 246.61 24.5037ZM194.176 25.6316C194.463 25.6316 194.756 25.6383 195.05 25.6449C195.05 25.9341 195.05 26.2233 195.05 26.5126C194.756 26.5126 194.465 26.5103 194.176 26.5059C194.176 26.2122 194.176 25.9252 194.176 25.6316ZM195.49 25.6449C195.788 25.6405 196.086 25.6383 196.384 25.6383C196.378 25.9186 196.378 26.1989 196.344 26.4859C196.064 26.5126 195.777 26.5126 195.497 26.5192C195.49 26.2256 195.49 25.9386 195.49 25.6449ZM174.033 30.8307C180.659 30.8374 187.277 30.8307 193.902 30.8374C193.896 32.8062 193.902 34.7817 193.896 36.7506C189.646 36.7506 185.402 36.7439 181.152 36.7506C181.159 39.2467 181.152 41.7428 181.152 44.2322C184.929 44.2389 188.705 44.2322 192.481 44.2322C192.528 46.0409 192.455 47.8429 192.528 49.6449C188.738 49.6583 184.942 49.6449 181.152 49.6516C181.159 54.1766 181.146 58.7017 181.159 63.2267C178.784 63.2334 176.409 63.2267 174.033 63.2334C174.04 52.4347 174.04 41.6294 174.033 30.8307ZM202.856 30.8374C205.518 30.8307 208.18 30.8374 210.836 30.8374C214.792 41.636 218.735 52.4347 222.692 63.2267C220.096 63.2267 217.494 63.2334 214.899 63.2267C214.218 61.071 213.511 58.9219 212.824 56.7662C208.634 56.7595 204.451 56.7662 200.261 56.7595C199.507 58.9152 198.806 61.0843 198.052 63.2334C195.597 63.2267 193.142 63.24 190.686 63.2267C194.763 52.4347 198.8 41.636 202.856 30.8374ZM202.122 51.0198C205.064 51.0331 208.007 51.0198 210.949 51.0198C210.015 48.1833 209.101 45.3335 208.174 42.497C207.626 40.8018 207.053 39.1132 206.632 37.378C205.231 41.9631 203.663 46.4881 202.122 51.0198ZM224.967 30.8374C228.12 30.8374 231.272 30.8374 234.421 30.8374C236.843 30.8507 239.311 30.6839 241.667 31.3513C244.062 31.9519 246.384 33.4336 247.411 35.7562C248.645 38.586 248.258 42.2367 246.05 44.4925C245.203 45.3802 244.102 45.9675 242.941 46.3146C244.662 46.735 246.357 47.5426 247.484 48.9442C249.099 50.8863 249.359 53.616 248.859 56.012C248.405 58.2612 246.951 60.2567 244.989 61.4247C242.747 62.7929 240.072 63.2067 237.483 63.2267C233.313 63.2334 229.137 63.2267 224.967 63.2267C224.967 52.428 224.973 41.6294 224.967 30.8374ZM232.086 36.4236C232.092 38.9597 232.092 41.4959 232.092 44.032C233.78 44.012 235.475 44.0854 237.163 43.9853C238.537 43.8919 240.039 43.2645 240.572 41.8963C241.019 40.675 241.053 39.1866 240.352 38.0454C239.565 36.8641 238.064 36.4636 236.723 36.4302C235.175 36.4169 233.634 36.4302 232.086 36.4236ZM232.092 48.9241C232.088 51.8251 232.088 54.7284 232.092 57.6338C233.894 57.5938 235.702 57.7139 237.497 57.5604C238.931 57.4469 240.426 56.7061 240.999 55.3112C241.553 53.883 241.513 52.1811 240.779 50.8262C240.052 49.5315 238.511 49.0109 237.103 48.9508C235.428 48.8841 233.76 48.9441 232.092 48.9241ZM178.403 68.3724C179.177 68.1121 179.551 69.4002 178.717 69.5604C177.963 69.7673 177.67 68.5393 178.403 68.3724ZM196.745 68.5259C197.078 68.5192 197.405 68.5192 197.739 68.5192C197.739 69.1866 197.739 69.8607 197.725 70.5348C198.553 70.0476 199.814 70.0943 200.321 71.0087C200.901 72.1299 200.828 73.8051 199.7 74.566C198.82 75.1599 197.705 74.9197 196.751 74.6594C196.745 72.6105 196.758 70.5682 196.745 68.5259ZM197.739 71.2089C197.779 72.1633 197.632 73.1577 197.812 74.0921C198.366 74.2389 199.066 74.1855 199.38 73.6383C199.74 72.9708 199.76 72.0565 199.347 71.4091C198.973 70.8685 198.259 71.0087 197.739 71.2089ZM213.404 68.5192C213.731 68.5192 214.052 68.5192 214.378 68.5192C214.378 69.2 214.378 69.8808 214.372 70.5548C214.926 70.2945 215.559 70.1077 216.173 70.2879C216.727 70.428 217.067 71.002 217.067 71.5493C217.101 72.6505 217.067 73.7517 217.081 74.8529C216.76 74.8529 216.44 74.8529 216.12 74.8529C216.093 73.7517 216.193 72.6505 216.073 71.5559C215.9 70.7951 214.906 70.9419 214.412 71.2756C214.325 72.4636 214.398 73.665 214.378 74.8529C214.054 74.8529 213.729 74.8529 213.404 74.8529C213.411 72.7439 213.411 70.6282 213.404 68.5192ZM222.024 68.5259C222.354 68.5215 222.685 68.5192 223.019 68.5192C223.019 69.1933 223.019 69.8607 223.005 70.5348C223.646 70.1878 224.493 70.0676 225.127 70.5014C225.827 70.9886 225.988 71.9097 225.948 72.7106C225.928 73.5181 225.507 74.3591 224.747 74.7061C223.886 75.1199 222.905 74.8863 222.024 74.646C222.031 72.6104 222.031 70.5682 222.024 68.5259ZM223.019 71.2022C223.014 72.1722 223.016 73.1422 223.025 74.1121C223.512 74.1321 224.099 74.2656 224.486 73.8652C225.054 73.2445 225.04 72.2434 224.707 71.5159C224.366 70.8885 223.579 70.9753 223.019 71.2022ZM226.641 68.5393C226.935 68.1722 227.656 68.3524 227.689 68.8463C227.809 69.3335 227.209 69.7673 226.788 69.4803C226.441 69.3201 226.341 68.7929 226.641 68.5393ZM244.395 68.5192C244.716 68.5192 245.036 68.5259 245.363 68.5259C245.363 69.7606 245.356 70.9886 245.369 72.2234C245.89 71.5693 246.41 70.9152 246.944 70.2745C247.304 70.2745 247.665 70.279 248.025 70.2879C247.444 70.962 246.891 71.6627 246.304 72.3368C246.757 72.9175 247.204 73.4914 247.658 74.0654C247.765 74.0921 247.972 74.1388 248.078 74.1588C248.078 74.3524 248.065 74.7261 248.065 74.913C247.671 74.8663 247.211 74.913 246.911 74.5927C246.337 73.9853 245.883 73.2779 245.369 72.6238C245.356 73.3646 245.363 74.1054 245.369 74.8529C245.04 74.8529 244.713 74.8529 244.389 74.8529C244.402 72.7439 244.395 70.6282 244.395 68.5192ZM174.04 69.0198C175.161 69.0198 176.275 69.0198 177.403 69.0198C177.398 69.3046 177.398 69.5893 177.403 69.8741C176.606 69.8741 175.813 69.8741 175.021 69.8741C175.021 70.3947 175.021 70.9152 175.027 71.4358C175.728 71.4358 176.429 71.4358 177.136 71.4358C177.136 71.6983 177.136 71.9631 177.136 72.23C176.429 72.2256 175.724 72.2234 175.021 72.2234C175.027 73.0977 175.021 73.972 175.027 74.8529C174.694 74.8529 174.367 74.8529 174.033 74.8529C174.04 72.9108 174.033 70.962 174.04 69.0198ZM193.062 69.0064C193.429 69.0198 193.796 69.0064 194.163 69.0532C194.93 70.962 195.557 72.9308 196.284 74.8529C195.911 74.8529 195.539 74.8529 195.17 74.8529C195.023 74.4125 194.879 73.972 194.736 73.5315C193.949 73.5381 193.162 73.5381 192.374 73.5381C192.221 73.972 192.074 74.4125 191.927 74.8529C191.58 74.8529 191.234 74.8529 190.887 74.8529C191.627 72.9108 192.328 70.9553 193.062 69.0064ZM192.655 72.6638C193.262 72.6705 193.862 72.6705 194.469 72.6638C194.169 71.7762 193.856 70.8952 193.602 69.9942C193.282 70.8819 192.988 71.7762 192.655 72.6638ZM207.96 69.0198C209.301 69.0732 210.976 68.7395 211.957 69.9008C212.917 71.1488 212.871 73.2044 211.663 74.2723C210.629 75.1399 209.188 74.7862 207.953 74.8529C207.96 72.9108 207.953 70.962 207.96 69.0198ZM208.981 69.8541C208.981 71.2356 208.988 72.6238 208.981 74.0053C209.741 74.0053 210.696 74.1054 211.183 73.3846C211.696 72.5704 211.663 71.4558 211.263 70.6082C210.809 69.794 209.781 69.8474 208.981 69.8541ZM230.871 74.8529C230.878 72.9108 230.871 70.962 230.871 69.0198C231.912 69.0665 233.026 68.8596 234.014 69.2934C234.988 69.7873 234.908 71.329 233.934 71.7962C235.108 72.19 235.208 73.9252 234.181 74.5393C233.173 75.0999 231.966 74.7662 230.871 74.8529ZM231.866 69.8607C231.866 70.3947 231.866 70.933 231.866 71.4759C232.306 71.4558 232.753 71.4959 233.187 71.4024C233.814 71.2356 233.907 70.2545 233.327 69.9675C232.86 69.794 232.346 69.8807 231.866 69.8607ZM231.866 72.1833C231.866 72.8107 231.866 73.438 231.872 74.0654C232.373 74.0387 232.906 74.1121 233.387 73.9186C233.84 73.6916 233.874 73.091 233.72 72.6638C233.347 72.0098 232.486 72.23 231.866 72.1833ZM186.777 69.1132C187.044 69.1043 187.31 69.0954 187.577 69.0865C187.571 69.487 187.577 69.8807 187.571 70.2812C187.922 70.2767 188.273 70.2745 188.625 70.2745C188.625 70.4614 188.618 70.8351 188.618 71.022C188.265 71.0153 187.918 71.0153 187.571 71.0153C187.617 71.9697 187.477 72.9442 187.657 73.8852C187.884 74.2856 188.371 74.0587 188.738 74.0854C188.732 74.3457 188.725 74.5993 188.718 74.8596C188.258 74.893 187.778 74.9797 187.317 74.8529C186.897 74.7195 186.623 74.2923 186.637 73.8652C186.59 72.9175 186.63 71.9631 186.623 71.0153C186.47 71.0153 186.176 71.0153 186.029 71.022C186.021 70.7729 186.014 70.5259 186.009 70.2812C186.163 70.2812 186.476 70.2812 186.63 70.2812C186.674 69.8896 186.723 69.5003 186.777 69.1132ZM178.083 70.2812C178.41 70.2812 178.737 70.2745 179.071 70.2745C179.064 71.8029 179.064 73.3246 179.071 74.8529C178.742 74.8529 178.415 74.8529 178.09 74.8529C178.083 73.3312 178.09 71.8096 178.083 70.2812ZM180.932 70.6549C181.379 70.3146 181.913 70.1878 182.467 70.2145C182.48 70.5081 182.491 70.804 182.5 71.1021C181.953 71.0554 181.406 71.1221 180.945 71.4358C180.959 72.5771 180.945 73.7117 180.952 74.8529C180.627 74.8529 180.303 74.8529 179.978 74.8529C179.985 73.3246 179.985 71.8029 179.978 70.2812C180.303 70.2767 180.627 70.2745 180.952 70.2745C180.945 70.368 180.939 70.5615 180.932 70.6549ZM183.481 70.3813C184.148 70.1077 184.882 70.2545 185.569 70.3546C185.569 70.5548 185.582 70.9553 185.582 71.1555C185.009 71.0954 184.241 70.7684 183.761 71.2222C183.474 71.9697 184.502 72.0298 184.949 72.2767C185.936 72.5304 186.176 73.9786 185.369 74.5726C184.622 75.1399 183.608 74.9197 182.774 74.7195C182.774 74.5192 182.774 74.1188 182.774 73.9186C183.341 74.0654 183.954 74.2923 184.542 74.0988C184.895 73.9853 185.049 73.4647 184.728 73.2245C184.261 72.9442 183.714 72.8507 183.261 72.5504C182.52 72.0432 182.62 70.7017 183.481 70.3813ZM218.061 70.3947C218.909 70.2545 219.929 70.0009 220.657 70.5949C221.271 71.1955 221.05 72.1366 221.084 72.9041C221.124 73.398 220.884 74.1255 221.557 74.2523C221.562 74.4614 221.566 74.6705 221.571 74.8796C221.077 74.9597 220.57 74.9397 220.203 74.5526C219.623 74.9264 218.849 75.0865 218.215 74.7395C217.421 74.3123 217.407 72.9842 218.201 72.5504C218.795 72.19 219.509 72.2234 220.176 72.2033C220.056 71.8429 220.136 71.329 219.756 71.1155C219.189 70.8752 218.568 71.0954 218.008 71.2489C218.021 70.9619 218.041 70.675 218.061 70.3947ZM218.675 73.2378C218.535 73.5181 218.588 73.9252 218.889 74.0854C219.282 74.3257 219.743 74.0988 220.13 73.9386C220.121 73.5648 220.114 73.1911 220.11 72.8173C219.629 72.8908 219.002 72.7906 218.675 73.2378ZM226.601 70.2745C226.928 70.2745 227.262 70.2745 227.589 70.2812C227.589 71.8029 227.589 73.3312 227.589 74.8529C227.255 74.8529 226.928 74.8529 226.601 74.8529C226.615 73.3246 226.608 71.8029 226.601 70.2745ZM235.842 70.388C236.769 70.2278 238.117 69.9341 238.684 70.9353C238.991 71.8096 238.771 72.764 238.851 73.6716C238.764 74.032 239.111 74.1321 239.358 74.2723C239.351 74.4258 239.345 74.7462 239.345 74.9063C238.851 74.953 238.344 74.933 237.97 74.5593C237.397 74.9197 236.643 75.0799 236.022 74.7528C235.181 74.3591 235.175 72.9575 235.989 72.537C236.576 72.19 237.283 72.23 237.944 72.2033C237.824 71.8429 237.904 71.3424 237.537 71.1155C236.976 70.8752 236.362 71.0888 235.809 71.2356C235.818 70.9553 235.829 70.6727 235.842 70.388ZM236.449 73.2178C236.296 73.5181 236.362 73.9319 236.683 74.1054C237.036 74.2589 237.477 74.1855 237.797 73.9786C237.93 73.6116 237.884 73.2044 237.91 72.824C237.417 72.8841 236.809 72.804 236.449 73.2178ZM239.825 70.2545C240.192 70.2879 240.612 70.2145 240.906 70.5081C241.473 70.2412 242.147 70.1077 242.754 70.3413C243.214 70.5548 243.475 71.0554 243.501 71.5493C243.561 72.6505 243.501 73.7517 243.528 74.8529C243.194 74.8529 242.863 74.8529 242.534 74.8529C242.507 73.7517 242.594 72.6505 242.494 71.5559C242.314 70.7551 241.34 71.0087 240.806 71.2556C240.793 72.4569 240.799 73.6516 240.806 74.8529C240.472 74.8529 240.143 74.8529 239.818 74.8529C239.825 73.3179 239.818 71.7895 239.825 70.2545ZM201.268 70.2812C201.588 70.2812 201.911 70.2812 202.236 70.2812C202.236 71.2156 202.222 72.1499 202.229 73.091C202.229 73.4581 202.296 73.8985 202.663 74.0787C203.103 74.2523 203.543 74.032 203.957 73.9052C203.957 72.695 203.957 71.487 203.957 70.2812C204.295 70.2812 204.635 70.2812 204.978 70.2812C204.978 71.8118 204.978 73.3424 204.978 74.873C204.597 74.8529 204.19 74.8796 203.857 74.646C203.263 74.9063 202.542 75.0799 201.935 74.7528C201.462 74.5259 201.288 73.972 201.268 73.4848C201.248 72.4169 201.275 71.349 201.268 70.2812Z" fill="#00458A"/>
<path d="M247.338 30.8576C256.952 25.5784 266.573 20.3126 276.187 15.04C271.971 21.8943 268.301 29.1157 265.666 36.7308C263.25 43.6852 261.663 50.98 261.422 58.3548C261.235 62.2992 261.576 66.257 262.143 70.1613C257.699 63.6808 255.211 55.8654 255.171 47.9967C255.104 42.1101 256.385 36.2102 258.88 30.871C255.031 30.8509 251.181 30.8776 247.338 30.8576Z" fill="#EF2E24"/>
</g>
<defs>
<clipPath id="clip0_119_846">
<rect width="102.214" height="60" fill="white" transform="translate(174 15)"/>
</clipPath>
</defs>
</svg>
