<svg width="450" height="90" viewBox="0 0 450 90" fill="none" xmlns="http://www.w3.org/2000/svg">
<path fill-rule="evenodd" clip-rule="evenodd" d="M145.509 22.7919V30.5834L146.054 30.0584C147.772 28.4054 150.339 26.9173 153.394 25.8038L154.415 25.432L154.433 20.216L154.451 15H149.98H145.509V22.7919ZM164.518 18.8723C164.518 21.0017 164.535 22.7442 164.556 22.7442C164.663 22.7442 167.025 22.13 168.073 21.8297C169.87 21.3147 171.313 20.7821 172.913 20.0428L173.458 19.7911V17.3955V15H168.988H164.518V18.8723ZM302.085 15.4224V15.7743H302.683H303.282V17.3938V19.013H303.669H304.056V17.3938V15.7743H304.655H305.253V15.4224V15.0705H303.669H302.085V15.4224ZM305.746 17.039V19.013H306.133H306.52L306.523 17.6579L306.525 16.3023L306.718 16.7953C306.825 17.0665 307.051 17.676 307.222 18.1504L307.533 19.013H307.862H308.191L308.676 17.6929L309.16 16.3729L309.18 17.6929L309.199 19.013H309.584H309.97V17.039V15.0646L309.398 15.0853L308.825 15.1056L308.518 15.9154C308.349 16.3606 308.142 16.9085 308.059 17.1332C307.884 17.6025 307.848 17.589 307.615 16.9659C307.522 16.7171 307.325 16.1967 307.176 15.8098L306.907 15.1056L306.326 15.0853L305.746 15.0646V17.039ZM242.313 36.5784V50.0607H245.586H248.86V36.5784V23.0965H245.586H242.313V36.5784ZM228.096 30.9864C226.459 31.1309 224.424 31.5634 223.234 32.0192L222.706 32.2216L222.726 34.4325C222.749 36.8606 222.736 36.7495 222.98 36.5898C223.777 36.0673 225.754 35.5092 227.377 35.3483C230.863 35.0032 232.759 35.9401 232.97 38.1118C232.998 38.3986 232.986 38.4434 232.888 38.4151C232.088 38.1827 228.851 38.1363 227.352 38.3356C222.629 38.9638 220.351 41.0019 220.349 44.6043C220.346 48.1581 222.788 50.3192 226.965 50.4599C229.695 50.552 231.538 49.694 232.951 47.6736L233.266 47.2225L233.31 47.6736C233.334 47.9216 233.378 48.5603 233.405 49.0925L233.456 50.0607H236.449H239.442L239.395 49.8102C239.155 48.5336 239.128 47.9114 239.075 42.5978C239.018 36.8268 239.026 36.9509 238.64 35.769C237.483 32.219 233.676 30.4922 228.096 30.9864ZM258.862 30.9864C257.217 31.1317 255.516 31.4912 254.14 31.9833L253.472 32.2224L253.492 34.0485C253.503 35.0526 253.53 36.0533 253.551 36.2717L253.589 36.6688L254.27 36.3498C257.643 34.767 262.149 34.9597 263.278 36.7351C263.627 37.2825 263.897 38.4856 263.656 38.4159C261.271 37.7278 255.994 38.3897 253.859 39.6447C249.988 41.9199 250.185 47.6461 254.204 49.67C256.235 50.6926 259.383 50.7594 261.286 49.8195C262.261 49.3384 263.156 48.5206 263.85 47.4763L264.048 47.1798L264.092 47.8633C264.117 48.2392 264.157 48.8876 264.182 49.3037L264.229 50.0607H267.218H270.208L270.161 49.8089C269.914 48.4923 269.893 48.0196 269.841 42.6333C269.785 36.8225 269.793 36.9522 269.406 35.769C268.25 32.2237 264.434 30.493 258.862 30.9864ZM295.502 30.9526C293.989 31.0988 293.555 31.155 292.791 31.3058C291.942 31.4735 290.741 31.8105 290.011 32.0864L289.659 32.219L289.683 34.4342C289.697 35.652 289.718 36.6591 289.729 36.6717C289.741 36.684 289.936 36.5995 290.162 36.4838C292.675 35.2 296.706 34.8921 298.499 35.8476C299.276 36.262 299.751 36.959 299.902 37.9077C299.995 38.4936 300.075 38.4434 299.233 38.3225C295.903 37.8452 291.76 38.5033 289.73 39.8327C286.043 42.2476 286.588 48.1066 290.657 49.8064C294.244 51.3043 297.948 50.4404 299.928 47.6436L300.219 47.2334L300.264 47.503C300.289 47.6512 300.332 48.2874 300.36 48.9168L300.41 50.0607H303.395C305.736 50.0607 306.379 50.0417 306.379 49.9728C306.379 49.9243 306.333 49.6155 306.277 49.2864C306.09 48.186 306.028 46.3966 306.028 42.0926C306.028 36.8694 305.981 36.4398 305.263 34.9592C304.214 32.7944 302.315 31.5698 299.198 31.0485C298.74 30.9716 296.031 30.9015 295.502 30.9526ZM268.995 31.3062C268.995 31.3552 270.716 34.3712 270.898 34.6424C270.963 34.7392 271.104 34.977 271.21 35.1705C271.397 35.5118 272.033 36.6109 272.168 36.8251C272.306 37.0451 275.701 42.9206 275.796 43.1035C275.877 43.2602 275.895 43.9073 275.895 46.678V50.0607H279.133H282.372V46.6974V43.3345L285.188 38.4151C286.737 35.7095 288.004 33.4854 288.004 33.4728C288.004 33.4601 288.158 33.1876 288.347 32.867C288.535 32.5464 288.819 32.0543 288.977 31.7734L289.264 31.2631H285.653H282.042L280.876 33.9911C280.176 35.6258 279.602 37.0781 279.444 37.6137C279.178 38.5139 279.117 38.6081 279.032 38.2512C278.932 37.8304 278.412 36.2983 278.254 35.9557C278.161 35.7559 278.008 35.4028 277.912 35.1705C277.816 34.9381 277.639 34.5335 277.517 34.2711C277.395 34.0088 277.208 33.5813 277.1 33.3207C276.992 33.0601 276.751 32.4906 276.565 32.0551L276.226 31.2631H272.61C270.622 31.2631 268.995 31.2825 268.995 31.3062ZM198.346 31.4139C196.078 31.702 194.1 32.9798 193.092 34.8089L192.892 35.1705L192.891 33.463L192.89 31.7561H189.898H186.906V41.1194V50.4831H190.174H193.443L193.474 45.7132C193.507 40.6154 193.515 40.4895 193.883 39.3638C194.93 36.1564 198.62 35.7847 199.44 38.8037C199.63 39.504 199.631 39.515 199.64 45.3613L199.648 50.4831H202.925H206.201L206.196 45.9244C206.19 40.5445 206.263 39.793 206.918 38.5257C208.002 36.4288 210.919 36.1467 211.85 38.0484C212.297 38.9617 212.28 38.7112 212.304 44.8683L212.326 50.4831H215.602H218.879L218.849 44.0235C218.814 36.2992 218.778 35.9012 217.963 34.185C216.057 30.1745 208.422 30.3874 205.805 34.5242L205.614 34.827L205.381 34.3801C204.184 32.0851 201.61 30.9995 198.346 31.4139ZM176.979 41.1194V50.4831H180.323H183.667V41.1194V31.7561H180.323H176.979V41.1194ZM173.036 34.5094C171.071 36.3055 169.114 37.4448 165.662 38.8037L164.519 39.254L164.518 44.8683L164.518 50.4831H168.988H173.458V42.3165C173.458 37.8245 173.451 34.1512 173.441 34.1529C173.431 34.1545 173.249 34.3151 173.036 34.5094ZM232.782 41.7969C232.996 41.8349 233 41.843 232.969 42.164C232.719 44.7374 230.593 46.5039 228.29 46.0511C225.788 45.5586 225.799 42.7241 228.307 41.9587C229.128 41.7082 231.741 41.614 232.782 41.7969ZM262.747 41.7458C263.886 41.81 263.782 41.7462 263.709 42.3326C263.39 44.9144 261.202 46.5686 258.855 46.0021C256.87 45.5231 256.626 43.1119 258.47 42.1919C259.374 41.7407 260.528 41.6204 262.747 41.7458ZM299.745 41.799L299.976 41.8396L299.934 42.2012C299.63 44.8278 297.346 46.6264 295.08 46.0228C292.747 45.401 292.791 42.7613 295.146 42.0001C296.046 41.7091 298.604 41.5975 299.745 41.799ZM152.549 42.314C149.824 43.0143 148.346 43.517 146.301 44.44L145.509 44.7974V47.6402V50.4831H149.979H154.45V46.1533C154.45 43.7717 154.442 41.8261 154.432 41.829C154.423 41.832 153.575 42.0504 152.549 42.314ZM148.501 62.495C146.476 62.7489 145.403 63.8548 145.403 65.6885C145.403 67.1281 145.857 67.8204 147.462 68.8291C148.88 69.72 148.994 69.7918 149.273 69.9764C150.8 70.9847 150.98 72.4543 149.66 73.1416C148.571 73.7089 146.997 73.2531 145.838 72.0349C145.613 71.7979 145.415 71.604 145.398 71.604C145.382 71.604 145.368 72.1194 145.368 72.7496V73.8948L145.843 74.182C149.072 76.1315 152.715 74.3899 152.209 71.1381C152.003 69.8155 151.311 69.0121 149.404 67.8834C147.503 66.7576 147.033 66.29 147.026 65.514C147.01 63.8818 149.753 63.6414 151.441 65.1271L151.774 65.4207V64.3621V63.3031L151.194 63.0188C150.365 62.6124 149.267 62.3991 148.501 62.495ZM203.309 62.5229C199.711 62.8756 197.12 65.988 197.53 69.4645C197.616 70.1898 198.001 71.435 198.24 71.7595C198.318 71.8646 198.381 71.9698 198.381 71.9935C198.381 72.2659 199.489 73.4386 200.202 73.9214C202.163 75.2499 205.684 75.3538 208.097 74.155L208.484 73.9624L208.504 72.9524L208.523 71.9419L208.152 72.1641C204.097 74.5884 199.592 72.979 199.389 69.0344C199.179 64.9611 203.335 62.9951 207.71 65.0983L208.343 65.4029L208.363 64.4457C208.374 63.919 208.369 63.4746 208.352 63.4577C208.126 63.2317 205.863 62.6259 204.869 62.5254C204.083 62.446 204.096 62.446 203.309 62.5229ZM266.637 62.5233C262.731 63.0522 262.514 68.9229 266.374 69.6427C267.057 69.7699 268.415 69.5561 268.766 69.2659C268.954 69.1113 268.221 70.7604 268.009 70.9704C267.99 70.9898 267.796 71.2272 267.579 71.4984C267.008 72.211 266.545 72.6596 265.827 73.1957C265.069 73.7617 265.082 73.6477 265.696 74.3628C266.317 75.0864 266.215 75.064 266.86 74.6192C272.642 70.627 272.478 61.7317 266.637 62.5233ZM283.111 62.5495C282.84 62.6014 282.428 62.7197 282.196 62.8122L281.774 62.9803L281.754 63.8425C281.743 64.3253 281.762 64.7047 281.798 64.7047C281.833 64.7047 282.048 64.6219 282.275 64.5209C284.472 63.5443 286.417 64.6261 285.857 66.5134C285.653 67.1999 285.018 67.5957 283.944 67.7055L283.494 67.7516L283.514 68.563L283.534 69.3749L284.25 69.4949C285.611 69.723 286.246 70.5235 286.023 71.7303C285.742 73.2502 284.149 73.6498 282.172 72.6955C281.81 72.5211 281.502 72.3783 281.485 72.3783C281.47 72.3783 281.457 72.8189 281.457 73.3575V74.3366L281.967 74.5483C285.046 75.8265 287.94 74.2319 287.933 71.2602C287.93 70.028 287.396 68.9512 286.603 68.5795L286.246 68.4126L286.586 68.1833C288.235 67.0727 288.156 64.2324 286.446 63.0898C285.632 62.5465 284.272 62.326 283.111 62.5495ZM301.742 62.5241C297.278 63.1734 297.035 73.7495 301.459 74.8854C302.734 75.2127 303.888 74.7574 304.89 73.5302C305.16 73.1986 305.673 72.0936 305.848 71.4633C306.961 67.4664 305.393 62.9537 302.741 62.5195C302.29 62.4456 302.282 62.4456 301.742 62.5241ZM162.617 68.7527V74.8427H163.532H164.447V68.7527V62.6627H163.532H162.617V68.7527ZM175.571 68.7548V74.8469L176.433 74.8271L177.296 74.8072L177.331 70.1978L177.366 65.5879L177.53 65.7974C177.621 65.9128 177.811 66.1337 177.953 66.2887C178.095 66.4433 178.303 66.6811 178.415 66.8167C178.526 66.9519 178.8 67.2687 179.021 67.5205C179.243 67.7723 179.959 68.596 180.612 69.3513C181.264 70.1061 181.83 70.7588 181.87 70.8014C181.91 70.8441 182.715 71.7709 183.659 72.8607L185.376 74.8427H186.176H186.976V68.7527V62.6627H186.096H185.217L185.199 67.2983L185.181 71.9335L183.315 69.7847C182.289 68.6031 181.086 67.2223 180.643 66.7162C180.2 66.2097 179.772 65.7197 179.693 65.6268C179.614 65.5339 179.001 64.8288 178.331 64.0605L177.114 62.6627H176.342H175.571V68.7548ZM219.08 68.7527V74.8427H222.67H226.261V74.0329V73.2231H223.586H220.91V71.3577V69.4919H223.409H225.909V68.6821V67.8728H223.409H220.91V66.0775V64.2822H223.48H226.049V63.4725V62.6627H222.565H219.08V68.7527ZM249.118 62.7096C249.092 62.7358 249.071 65.476 249.071 68.7996V74.8427H249.987H250.902V68.7527V62.6627H250.034C249.556 62.6627 249.144 62.6838 249.118 62.7096ZM267.867 64.2527C268.893 64.5577 269.553 66.0201 269.214 67.2383C269.069 67.76 267.5 68.1714 266.692 67.9002C264.279 67.0892 265.426 63.5278 267.867 64.2527ZM302.774 64.3207C304.802 65.1668 304.906 71.9369 302.908 73.0825C301.392 73.9522 300.219 72.3078 300.132 69.1878C300.033 65.6437 301.124 63.633 302.774 64.3207Z" fill="#006768"/>
<path fill-rule="evenodd" clip-rule="evenodd" d="M176.943 41.0828C176.943 46.2329 176.951 48.3293 176.961 45.7416C176.972 43.1539 176.972 38.9403 176.961 36.3779C176.951 33.8155 176.943 35.9327 176.943 41.0828ZM206.142 42.2444C206.142 42.38 206.157 42.4354 206.175 42.3678C206.192 42.2998 206.192 42.1891 206.175 42.1211C206.157 42.0535 206.142 42.1088 206.142 42.2444Z" fill="#006768"/>
<path fill-rule="evenodd" clip-rule="evenodd" d="M177.385 18.8685C174.068 21.7075 170.776 23.0872 163.109 24.8516C156.485 26.3761 153.774 27.2421 150.719 28.8113C145.209 31.6407 141.609 36.4035 141.042 41.6136L141 42.0009L141.16 41.7944C141.248 41.6807 141.553 41.2744 141.839 40.8908C143.633 38.4839 146.134 36.5838 149.645 34.9609C152.06 33.8444 153.408 33.3684 159.73 31.4008C162.112 30.6598 164.091 30.03 164.13 30.0017C164.169 29.9734 164.597 29.8137 165.081 29.6473C172.161 27.2087 176.316 23.6714 177.796 18.8207C177.912 18.4422 177.878 18.446 177.385 18.8685ZM177.499 23.2384C176.133 25.2436 174.674 26.5696 171.769 28.4464C169.561 29.8725 165.897 31.2639 157.772 33.7621C150.622 35.9599 147.051 37.7366 144.365 40.4312C142.945 41.8556 141.446 44.4087 141.175 45.8648L141.125 46.1385L141.715 45.6274C143.85 43.7793 146.653 42.3059 150.014 41.2646C151.117 40.9233 153.436 40.3349 158.498 39.1124C169.071 36.5593 174.493 32.9101 176.904 26.7233C177.025 26.4137 177.154 26.0969 177.191 26.0192C177.423 25.5304 177.93 23.2084 177.88 22.8645C177.862 22.7403 177.788 22.813 177.499 23.2384ZM145.509 56.5388V56.9613H225.803H306.098V56.5388V56.1164H225.803H145.509V56.5388Z" fill="#F47C24"/>
</svg>
