<svg width="450" height="90" viewBox="0 0 450 90" fill="none" xmlns="http://www.w3.org/2000/svg">
<path d="M252.135 15.123H245.633V24.968H240.39V31.1211H245.662V49.8954C245.65 51.4097 245.977 52.9075 246.619 54.279C247.261 55.6504 248.203 56.8605 249.374 57.8206C250.827 59.0333 252.577 59.8384 254.444 60.1538C255.191 60.2848 255.946 60.367 256.703 60.3999H257.196V53.853C257.196 53.853 256.866 53.853 256.703 53.853C255.998 53.8268 255.306 53.6456 254.679 53.3223C254.051 52.9991 253.502 52.5416 253.07 51.9825L253.036 51.9333C252.62 51.4015 252.339 50.7764 252.219 50.112C252.169 49.8506 252.141 49.5855 252.135 49.3194V31.1063H257.176V24.9483H252.135V15.123Z" fill="#F7D509"/>
<path d="M194.867 53.9427C196.713 57.9791 200.158 60.2927 204.323 60.2927H204.717C211.328 60.0613 214.143 55.951 215.837 52.3133L210.629 49.2713C209.934 50.6495 208.138 53.8295 204.372 53.8295H204.239C203.389 53.8067 202.565 53.5372 201.865 53.0538C201.166 52.5705 200.623 51.8942 200.301 51.1073C200.16 50.7627 200.094 50.3917 200.109 50.0195V49.8767L200.232 49.8078C201.217 49.2565 209.093 44.4374 210.776 43.2068C213.031 41.5479 214.138 39.6921 214.596 36.8076C214.671 36.3189 214.707 35.8252 214.704 35.3308C214.712 32.6078 213.646 29.9917 211.736 28.0506C209.826 26.1095 207.228 25.0004 204.505 24.9641H204.456C202.679 24.9521 200.93 25.4051 199.383 26.2782C197.835 27.1512 196.543 28.4138 195.635 29.9407C194.271 32.146 193.582 34.8632 193.582 38.048L193.533 45.8452C193.538 47.1776 193.617 48.5087 193.769 49.8324C193.918 51.2513 194.289 52.6382 194.867 53.9427ZM200.025 37.7871C200.025 35.2816 200.72 33.3569 201.994 32.3232C202.726 31.6959 203.665 31.3626 204.628 31.3879C205.508 31.4132 206.353 31.7361 207.025 32.3039C207.698 32.8717 208.157 33.6507 208.33 34.5137C208.502 35.4096 208.443 37.162 206.11 38.8061C203.648 40.529 201.487 41.9663 200.424 42.5669L200.03 42.7884L200.025 37.7871Z" fill="#F7D509"/>
<path d="M218.992 53.9418C220.837 57.9782 224.283 60.2917 228.443 60.2917H228.841C235.492 60.0555 238.327 55.8615 240.03 52.1549L234.758 49.2556C234.064 50.6339 232.267 53.8285 228.492 53.8285H228.359C227.509 53.8058 226.685 53.5363 225.985 53.0529C225.286 52.5696 224.743 51.8933 224.421 51.1064C224.276 50.7627 224.209 50.3913 224.224 50.0186V49.8758L224.347 49.8069C225.332 49.2556 233.208 44.4365 234.896 43.2059C237.151 41.547 238.253 39.6912 238.711 36.8066C238.786 36.318 238.822 35.8242 238.819 35.3299C238.836 32.6018 237.774 29.9775 235.865 28.0292C233.955 26.0808 231.353 24.9663 228.625 24.9287H228.576C226.8 24.926 225.055 25.3874 223.513 26.2672C221.97 27.1471 220.685 28.4149 219.784 29.9447C218.421 32.15 217.731 34.8672 217.731 38.052L217.682 45.8492C217.687 47.1816 217.766 48.5127 217.918 49.8364C218.068 51.2553 218.438 52.6422 219.016 53.9467M224.145 37.7862C224.145 35.2807 224.839 33.356 226.114 32.3223C226.846 31.6941 227.784 31.3607 228.748 31.387C229.628 31.4121 230.474 31.7348 231.147 32.3025C231.82 32.8702 232.281 33.6494 232.455 34.5128C232.627 35.4087 232.568 37.1611 230.234 38.8052C227.773 40.528 225.612 41.9654 224.544 42.5659L224.155 42.7874L224.145 37.7862Z" fill="#F7D509"/>
<path d="M270.452 24.5393C267.9 24.5378 265.43 25.4374 263.476 27.0793L263.196 27.3304C261.445 28.9088 260.278 31.0316 259.883 33.3555C259.839 33.5868 259.809 33.8477 259.789 34.0742L266.42 35.4574C266.504 34.9651 266.573 34.6353 266.583 34.5713C266.686 33.9866 266.904 33.4281 267.224 32.928C267.544 32.4279 267.96 31.996 268.448 31.6572C269.067 31.2866 269.775 31.0909 270.496 31.0911C270.712 31.0923 270.928 31.1104 271.141 31.1453C272.067 31.2842 272.912 31.7532 273.52 32.4661C274.128 33.1789 274.458 34.0874 274.449 35.0242V36.5009L274.247 36.5551C274.247 36.5551 272.145 37.1212 270.904 37.51L270.776 37.5494C270.151 37.7463 268.758 38.2533 268.65 38.2976C268.158 38.4847 267.793 38.6471 267.444 38.7899C265.997 39.4249 264.63 40.2261 263.368 41.1773L262.96 41.5071C262.684 41.7335 262.433 41.9698 262.197 42.2012C260.478 43.8434 259.426 46.0627 259.243 48.433C258.864 52.243 260.168 55.546 262.92 57.7316C264.414 58.9034 266.168 59.6972 268.035 60.0451C268.693 60.1709 269.362 60.2351 270.033 60.2371H270.127C270.442 60.2371 271.028 60.2125 271.249 60.1879C273.267 59.9997 275.201 59.2888 276.861 58.1254C277.378 57.7679 277.858 57.3589 278.293 56.9046C280.174 54.975 281.133 52.2725 281.133 48.8711V35.0882C281.109 32.2682 279.967 29.573 277.958 27.5937C275.949 25.6144 273.237 24.5124 270.417 24.5295M274.424 49.4273C274.425 50.2245 274.198 51.0054 273.771 51.6784C273.344 52.3514 272.734 52.8888 272.012 53.2275L271.938 53.262C271.384 53.5222 270.779 53.6567 270.166 53.6558H270.038C269.405 53.6433 268.782 53.4912 268.215 53.2104C267.647 52.9297 267.149 52.527 266.755 52.0313L266.725 51.992C266.318 51.4808 266.042 50.8773 265.923 50.2346C265.877 49.9877 265.851 49.7375 265.844 49.4864C265.844 49.4864 265.844 49.068 265.844 48.9942C265.902 48.3761 266.089 47.7772 266.395 47.2368C266.7 46.6964 267.116 46.2267 267.616 45.8586C267.769 45.7306 267.936 45.6026 268.108 45.4795C269.891 44.3234 271.875 43.5119 273.956 43.0872L274.449 42.9592L274.424 49.4273Z" fill="#F7D509"/>
<path d="M209.206 67.1339C206.824 66.5919 204.503 65.8085 202.28 64.7957C199.225 63.3972 196.416 61.5138 193.961 59.2186C193.065 58.3916 192.421 57.796 191.406 56.6884C190.608 55.8078 189.86 54.8825 189.167 53.917C186.568 50.326 184.699 46.2605 183.663 41.9505C183.663 41.8767 183.471 41.1186 183.471 41.1137C183.422 40.8725 183.368 40.651 183.314 40.4393C187.595 36.0821 190.97 30.9189 193.243 25.2486L193.38 24.9483H185.957L185.819 25.2486C183.176 31.062 178.475 35.7728 174.99 38.7066L174.532 39.0906V15H168V60.2867H174.527V47.5572L174.66 47.4785C175.472 46.9862 176.294 46.4103 177.121 45.8147L177.274 45.7064C179.115 51.4558 184.407 64.3576 199.204 71.1457C204.492 73.6865 210.285 75.0039 216.152 75C217.304 75 218.121 75 218.406 75C220.431 74.9276 222.445 74.6789 224.427 74.2567C224.067 72.8193 223.713 71.3869 223.358 69.9495C223.152 69.1078 222.94 68.2611 222.733 67.4194C218.251 68.2176 213.656 68.1323 209.206 67.1683" fill="#F7D509"/>
<path d="M241.605 58.3481C241.135 58.3473 240.668 58.4395 240.233 58.6194C239.798 58.7993 239.403 59.0635 239.07 59.3966L238.839 59.5836C238.445 59.9134 238.076 60.2334 238.007 60.2826C237.515 60.642 236.87 61.1736 236.653 61.3311C235.398 62.2615 234.113 63.0638 233.611 63.369C234.661 65.4922 235.707 67.6122 236.747 69.7288C238.052 68.9818 239.312 68.1601 240.523 67.2676C241.133 66.8197 241.655 66.416 241.95 66.1699C242.674 65.5644 243.048 65.1854 243.801 64.5947C244.022 64.4243 244.222 64.2276 244.397 64.0089C244.575 63.7908 244.726 63.551 244.844 63.2952C245.061 62.8331 245.172 62.3287 245.169 61.8184C245.166 61.3539 245.071 60.8945 244.89 60.4666C244.71 60.0387 244.446 59.6507 244.115 59.3247C243.784 58.9987 243.392 58.7412 242.961 58.5669C242.531 58.3926 242.07 58.3048 241.605 58.3087" fill="#F7D509"/>
<path d="M226.632 66.4016C227.213 68.6791 227.795 70.9582 228.379 73.2389C229.098 73.0322 229.851 72.7828 230.639 72.4907C231.515 72.1658 232.327 71.8262 233.075 71.5062L230.019 65.1611C229.575 65.3531 229.113 65.5451 228.63 65.7272C227.941 65.993 227.272 66.2195 226.632 66.4262" fill="#F7D509"/>
<path d="M222.737 67.3898C223.305 69.6672 223.869 71.9463 224.431 74.2271C225.016 74.1089 225.617 73.976 226.237 73.8234C226.99 73.6413 227.714 73.4444 228.388 73.2426L226.636 66.4053C226.052 66.589 225.436 66.7531 224.79 66.8975C224.081 67.0797 223.392 67.2322 222.737 67.3898Z" fill="black"/>
<path d="M230.018 65.1355L233.075 71.4805C233.656 71.2147 234.242 70.9391 234.827 70.6536C235.413 70.3681 236.122 70.0235 236.747 69.7085L233.616 63.3486C233.08 63.6391 232.533 63.9246 231.962 64.2101C231.298 64.5399 230.653 64.8451 230.018 65.1355Z" fill="black"/>
</svg>
