<svg width="450" height="90" viewBox="0 0 450 90" fill="none" xmlns="http://www.w3.org/2000/svg">
<path d="M182.392 25.9294C180.713 25.2591 178.898 24.9229 177.085 24.9229C176.01 24.9229 174.935 25.0569 173.861 25.2591L169.527 32.7116C171.307 31.738 173.289 31.2677 175.337 31.3006C176.579 31.3006 177.79 31.4677 178.966 31.8039L182.392 25.9294ZM156.362 45.9726C156.362 56.7151 165.498 65.0752 176.146 65.0752C187.297 65.0752 196.299 56.0778 196.299 45.1331C196.299 38.7201 193.209 33.0808 188.607 29.3205L185.249 35.1291C188.205 37.6477 189.917 41.3398 189.917 45.2342C189.917 52.6867 183.737 58.7985 176.146 58.7985C168.555 58.7985 162.408 52.6537 162.408 45.0672V45.0342C162.408 44.1265 162.476 43.2211 162.643 42.3486L156.362 45.9726ZM218.534 37.1444C216.888 37.1114 215.31 37.6806 214.066 38.7223L213.729 37.5136H210.708V52.8559H214.571V44.5287C214.571 42.7486 215.747 40.9706 218.03 40.9706C219.811 40.9706 220.852 42.2123 220.852 44.3287V52.8911H224.716V43.9947C224.714 39.83 222.296 37.1444 218.534 37.1444ZM263.374 37.1444C259.04 37.1444 255.649 40.6695 255.649 45.1683C255.649 49.667 259.042 53.1921 263.374 53.1921C267.708 53.1921 271.099 49.667 271.099 45.1683C271.099 40.6695 267.708 37.1444 263.374 37.1444ZM267.202 45.1683C267.202 47.6187 265.589 49.3989 263.407 49.3989C261.224 49.3989 259.578 47.6187 259.578 45.1683C259.578 42.7178 261.191 40.9377 263.374 40.9377C265.558 40.9377 267.202 42.7156 267.202 45.1683ZM240.535 37.1444C236.201 37.1444 232.81 40.6695 232.81 45.1683C232.81 49.667 236.203 53.1921 240.535 53.1921C244.869 53.1921 248.26 49.667 248.26 45.1683C248.26 40.6695 244.867 37.1444 240.535 37.1444ZM244.328 45.1683C244.328 47.6187 242.715 49.3989 240.533 49.3989C238.351 49.3989 236.737 47.6187 236.737 45.1683C236.737 42.7178 238.351 40.9377 240.533 40.9377C242.717 40.9377 244.328 42.7156 244.328 45.1683ZM287.087 37.1444C285.441 37.1114 283.863 37.6806 282.619 38.7223L282.283 37.5136H279.261V52.8559H283.09V44.5287C283.09 42.7486 284.265 40.9706 286.549 40.9706C288.329 40.9706 289.404 42.2123 289.404 44.3287V52.8911H293.267V43.9947C293.234 39.83 290.817 37.1444 287.087 37.1444Z" fill="black"/>
</svg>
