<svg width="450" height="90" viewBox="0 0 450 90" fill="none" xmlns="http://www.w3.org/2000/svg">
<path d="M199.55 25.0107H198.939V64.9883H199.55V25.0107Z" fill="black"/>
<path d="M139.941 29.2842C140.63 27.4833 142.903 27.4833 144.728 27.4833H145.067V25C145.067 25 137.952 25.1555 135.776 25.1555C133.535 25.1555 126.887 25 126.887 25V27.4833H127.226C129.051 27.4833 131.329 27.4833 132.01 29.281C132.581 30.8249 132.581 35.1912 132.581 37.0547V52.9142C132.581 54.7788 132.581 59.144 132.012 60.688C131.324 62.4867 129.051 62.4867 127.226 62.4867H126.887V64.97C126.887 64.9635 132.637 64.7228 135.787 64.7228C139.411 64.7228 145.072 64.97 145.072 64.97V62.4867H144.733C142.907 62.4867 140.63 62.4867 139.948 60.6912C139.375 59.1462 139.375 54.781 139.375 52.9175V37.0547C139.375 35.1912 139.375 30.8249 139.945 29.281" fill="#F37321"/>
<path d="M150.463 25.041V35.406H152.928L152.94 35.0821C153.164 28.3362 155.747 28.0512 161.559 28.0512H162.157C163.603 28.0415 164.965 28.0339 165.504 28.5662C165.684 28.7443 165.771 28.9905 165.771 29.322V56.5657C165.771 60.6102 165.204 62.2816 159.509 62.5169L159.185 62.5299V65.0002C159.185 65.0002 165.824 64.7573 169.666 64.7573C172.597 64.7573 179.145 65.0002 179.145 65.0002V62.5299L178.821 62.5169C173.127 62.2816 172.559 60.6102 172.559 56.5657V29.3155C172.553 29.1909 172.574 29.0665 172.619 28.9501C172.664 28.8338 172.732 28.7281 172.82 28.6396C173.477 27.9918 175.285 28.022 176.74 28.0425C177.015 28.0425 177.286 28.0501 177.542 28.0501C183.226 28.0501 185.06 29.6966 185.391 35.0897L185.41 35.4071H187.86V25.0421C187.86 25.0421 173.512 25.136 169.165 25.136C164.817 25.136 150.468 25.0421 150.468 25.0421" fill="#F37321"/>
<path d="M121.371 62.4867C118.503 62.0365 117.641 61.7115 115.756 59.5327L103.957 45.9848C110.173 45.175 114.004 41.0668 114.004 35.1329C114.004 31.2697 112.511 28.4841 109.577 26.8506C107.34 25.6089 104.235 25.0054 100.076 25.0054C98.8311 25.0356 95.8361 25.1382 92.5366 25.1382C89.1151 25.1382 82.0065 25 82.0065 25V27.4833H82.4999C84.3839 27.4703 86.5033 27.4833 87.0669 29.268C87.583 30.8163 87.583 35.1825 87.583 36.6174V52.9121C87.583 54.7119 87.583 57.4467 87.3444 59.3135C87.2936 59.7831 87.2003 60.2471 87.0659 60.6998C86.4893 62.4835 84.1918 62.4835 82.3444 62.4835H82V64.9668C82 64.9668 87.5334 64.7217 91.2313 64.7217C94.4109 64.7217 99.9411 64.9603 99.9411 64.9668V62.4835H99.4498C97.5971 62.491 95.4949 62.4835 94.8817 60.6966C94.7466 60.2451 94.6533 59.7821 94.6031 59.3135C94.3602 57.4554 94.3602 54.8004 94.3602 53.3526V46.6855C96.5681 46.7049 96.7603 46.9371 97.8951 48.305C98.111 48.5577 98.3474 48.8449 98.6238 49.1688L108.474 61.3908L111.369 64.9646C111.369 64.9646 114.545 64.8296 116.088 64.8296C118.331 64.8296 121.652 64.9689 121.652 64.9689V62.5299L121.371 62.4867ZM94.3602 43.9712C94.3602 43.9712 94.3602 29.539 94.3602 29.4537C94.3505 28.8782 94.3354 28.0922 94.8147 27.8676C95.1484 27.7219 98.3593 27.8374 98.5342 27.8374C103.597 27.8374 106.502 30.8012 106.502 35.9642C106.502 39.728 105.501 41.8863 103.263 42.9703C101.172 43.9787 94.3677 43.9712 94.3677 43.9712" fill="#F37321"/>
<path d="M214.914 38.3746H213.027V42.7894H210.626V31.3447H215.65C216.979 31.3447 217.97 31.7291 218.642 32.4158C218.972 32.7388 219.233 33.1254 219.409 33.5523C219.585 33.9792 219.673 34.4373 219.667 34.8991C219.667 36.4992 218.834 37.6199 217.399 38.0992L220.264 42.7872H217.574L214.914 38.3746ZM213.027 36.4851H215.426C216.642 36.4851 217.284 35.9248 217.284 34.9174C217.284 33.8766 216.611 33.3648 215.458 33.3648H213.027V36.4851Z" fill="black"/>
<path d="M220.217 38.6933C220.217 36.2457 221.962 34.3584 224.505 34.3584C227.049 34.3584 228.793 36.2457 228.793 38.6933C228.793 41.141 227.05 43.0294 224.505 43.0294C221.96 43.0294 220.217 41.141 220.217 38.6933ZM226.587 38.6933C226.587 37.0922 225.831 36.0049 224.507 36.0049C223.163 36.0049 222.428 37.0922 222.428 38.6933C222.428 40.2945 223.166 41.3677 224.505 41.3677C225.833 41.3677 226.585 40.2967 226.585 38.6955" fill="black"/>
<path d="M229.407 38.6933C229.407 36.2457 231.007 34.3584 233.503 34.3584C235.631 34.3584 236.944 35.5892 237.23 37.3642H235.103C234.958 36.6463 234.398 36.101 233.599 36.101C232.286 36.101 231.613 37.1105 231.613 38.6923C231.613 40.2438 232.239 41.2835 233.568 41.2835C234.447 41.2835 235.071 40.8192 235.214 39.8918H237.31C237.166 41.6355 235.807 43.0229 233.614 43.0229C231.023 43.0229 229.403 41.1345 229.403 38.6869" fill="black"/>
<path d="M240.441 35.6534H240.49C241.081 34.7897 241.754 34.3578 242.875 34.3578C244.571 34.3578 245.707 35.6394 245.707 37.4306V42.7923H243.53V37.7502C243.53 36.8713 243.017 36.2473 242.106 36.2473C241.146 36.2473 240.441 37.016 240.441 38.1346V42.7923H238.26V31.3477H240.441V35.6534Z" fill="black"/>
<path d="M246.65 38.6781C246.65 36.2445 248.296 34.3594 250.697 34.3594C253.336 34.3594 254.745 36.3752 254.745 39.3033H248.793C248.953 40.5676 249.657 41.3547 250.889 41.3547C251.737 41.3547 252.234 40.9703 252.474 40.3462H254.618C254.313 41.8027 253.017 43.0336 250.905 43.0336C248.185 43.0336 246.65 41.1301 246.65 38.6824M248.825 37.8014H252.474C252.41 36.7617 251.718 36.0404 250.729 36.0404C249.578 36.0404 249.018 36.7293 248.825 37.8014Z" fill="black"/>
<path d="M255.247 40.1341H257.262C257.407 41.0788 258.079 41.4945 259.054 41.4945C260.028 41.4945 260.559 41.1263 260.559 40.5497C260.559 39.7659 259.518 39.686 258.399 39.4614C256.927 39.1731 255.484 38.7726 255.484 36.9781C255.484 35.1837 256.955 34.3545 258.831 34.3545C260.99 34.3545 262.19 35.4266 262.351 37.0742H260.383C260.287 36.1954 259.726 35.8747 258.8 35.8747C257.951 35.8747 257.396 36.1986 257.396 36.7859C257.396 37.491 258.485 37.5547 259.654 37.7944C261.028 38.0827 262.548 38.4659 262.548 40.3856C262.548 42.0332 261.145 43.0255 259.093 43.0255C256.71 43.0255 255.383 41.8734 255.254 40.1297" fill="black"/>
<path d="M262.883 34.5824H264.019V32.0225H266.148V34.5824H267.552V36.0216H266.148V40.3749C266.148 40.9828 266.484 41.189 266.963 41.189C267.235 41.189 267.604 41.175 267.604 41.175V42.7718C267.604 42.7718 267.107 42.8042 266.244 42.8042C265.187 42.8042 264.019 42.3885 264.019 40.837V36.0216H262.883V34.5824Z" fill="black"/>
<path d="M268.2 38.6781C268.2 36.2445 269.847 34.3594 272.246 34.3594C274.887 34.3594 276.296 36.3752 276.296 39.3033H270.348C270.509 40.5676 271.212 41.3547 272.444 41.3547C273.293 41.3547 273.789 40.9703 274.029 40.3462H276.173C275.869 41.8027 274.572 43.0336 272.46 43.0336C269.74 43.0336 268.205 41.1301 268.205 38.6824M270.381 37.8014H274.019C273.955 36.7617 273.263 36.0404 272.274 36.0404C271.123 36.0404 270.563 36.7293 270.371 37.8014" fill="black"/>
<path d="M279.405 35.8936H279.452C279.949 34.965 280.508 34.49 281.468 34.49C281.642 34.4792 281.815 34.5012 281.981 34.5547V36.4582H281.932C280.508 36.3135 279.485 37.065 279.485 38.7936V42.7949H277.309V34.5893H279.405V35.8936Z" fill="black"/>
<path d="M288.13 31.3477H285.81V42.788H288.13V31.3477Z" fill="black"/>
<path d="M291.859 35.7006H291.907C292.467 34.8217 293.22 34.3574 294.34 34.3574C296.035 34.3574 297.172 35.6368 297.172 37.4302V42.7909H294.996V37.7487C294.996 36.8699 294.483 36.2458 293.571 36.2458C292.612 36.2458 291.907 37.0135 291.907 38.1342V42.7909H289.731V34.5852H291.859V35.7006Z" fill="black"/>
<path d="M298.009 40.1341H300.024C300.169 41.0788 300.841 41.4945 301.816 41.4945C302.791 41.4945 303.321 41.1263 303.321 40.5497C303.321 39.7659 302.28 39.686 301.162 39.4614C299.689 39.1731 298.247 38.7726 298.247 36.9781C298.247 35.1837 299.718 34.3545 301.594 34.3545C303.753 34.3545 304.953 35.4266 305.113 37.0742H303.144C303.049 36.1954 302.489 35.8747 301.561 35.8747C300.713 35.8747 300.158 36.1986 300.158 36.7859C300.158 37.491 301.246 37.5547 302.415 37.7944C303.791 38.0827 305.31 38.4659 305.31 40.3856C305.31 42.0332 303.907 43.0255 301.855 43.0255C299.471 43.0255 298.144 41.8734 298.017 40.1297" fill="black"/>
<path d="M305.646 34.5824H306.781V32.0225H308.91V34.5824H310.313V36.0216H308.91V40.3749C308.91 40.9828 309.247 41.189 309.725 41.189C309.997 41.189 310.365 41.175 310.365 41.175V42.7718C310.365 42.7718 309.869 42.8042 309.006 42.8042C307.95 42.8042 306.781 42.3885 306.781 40.837V36.0216H305.646V34.5824Z" fill="black"/>
<path d="M311.439 31.3477H313.616V33.2997H311.439V31.3477ZM311.439 34.5802H313.616V42.7859H311.439V34.5802Z" fill="black"/>
<path d="M314.547 34.5824H315.683V32.0225H317.812V34.5824H319.215V36.0216H317.812V40.3749C317.812 40.9828 318.148 41.189 318.627 41.189C318.899 41.189 319.267 41.175 319.267 41.175V42.7718C319.267 42.7718 318.771 42.8042 317.908 42.8042C316.851 42.8042 315.683 42.3885 315.683 40.837V36.0216H314.547V34.5824Z" fill="black"/>
<path d="M325.527 42.7898V41.83H325.479C324.918 42.5857 324.278 43.0176 323.125 43.0176C321.301 43.0176 320.279 41.8483 320.279 40.0571V34.582H322.438V39.6857C322.438 40.6466 322.87 41.1746 323.797 41.1746C324.822 41.1746 325.447 40.4059 325.447 39.3175V34.582H327.623V42.7876L325.527 42.7898Z" fill="black"/>
<path d="M328.556 34.5824H329.691V32.0225H331.82V34.5824H333.224V36.0216H331.82V40.3749C331.82 40.9828 332.157 41.189 332.635 41.189C332.907 41.189 333.275 41.175 333.275 41.175V42.7718C333.275 42.7718 332.779 42.8042 331.916 42.8042C330.859 42.8042 329.691 42.3885 329.691 40.837V36.0216H328.556V34.5824Z" fill="black"/>
<path d="M333.871 38.6781C333.871 36.2445 335.519 34.3594 337.919 34.3594C340.559 34.3594 341.965 36.3752 341.965 39.3033H336.015C336.175 40.5676 336.879 41.3547 338.111 41.3547C338.96 41.3547 339.454 40.9703 339.696 40.3462H341.838C341.535 41.8027 340.238 43.0336 338.126 43.0336C335.406 43.0336 333.871 41.1301 333.871 38.6824M336.047 37.8014H339.696C339.631 36.7617 338.94 36.0404 337.95 36.0404C336.799 36.0404 336.239 36.7293 336.047 37.8014Z" fill="black"/>
<path d="M210.049 54.7042C210.049 52.2555 211.795 50.3682 214.338 50.3682C216.882 50.3682 218.631 52.2555 218.631 54.7042C218.631 57.1529 216.888 59.0391 214.344 59.0391C211.8 59.0391 210.054 57.1518 210.054 54.7042M216.424 54.7042C216.424 53.103 215.669 52.0158 214.345 52.0158C213 52.0158 212.265 53.103 212.265 54.7042C212.265 56.3054 213 57.3764 214.345 57.3764C215.672 57.3764 216.424 56.3054 216.424 54.7042Z" fill="black"/>
<path d="M219.001 50.5922H220.12V49.8558C220.12 47.8562 221.673 47.1566 223.769 47.3725V49.0536C222.744 49.004 222.297 49.1324 222.297 49.9811V50.5889H223.769V52.0929H222.303V58.7978H220.125V52.0929H219.006L219.001 50.5922Z" fill="black"/>
<path d="M227.036 47.3594H236.237V49.3115H232.797V58.8008H230.477V49.3115H227.036V47.3594Z" fill="black"/>
<path d="M234.996 54.6898C234.996 52.2562 236.643 50.3711 239.042 50.3711C241.683 50.3711 243.092 52.3869 243.092 55.315H237.139C237.3 56.5804 238.003 57.3664 239.234 57.3664C240.083 57.3664 240.578 56.9831 240.819 56.358H242.964C242.659 57.8155 241.362 59.0464 239.251 59.0464C236.531 59.0464 234.996 57.1429 234.996 54.6952M237.171 53.8142H240.819C240.756 52.7734 240.064 52.0532 239.075 52.0532C237.924 52.0532 237.363 52.741 237.171 53.8142Z" fill="black"/>
<path d="M243.703 54.7042C243.703 52.2555 245.304 50.3682 247.806 50.3682C249.933 50.3682 251.246 51.6001 251.533 53.3751H249.403C249.259 52.656 248.699 52.1119 247.9 52.1119C246.587 52.1119 245.914 53.1203 245.914 54.7031C245.914 56.2546 246.538 57.2944 247.867 57.2944C248.746 57.2944 249.37 56.829 249.515 55.9026H251.611C251.466 57.6463 250.107 59.0337 247.914 59.0337C245.323 59.0337 243.703 57.1464 243.703 54.6988" fill="black"/>
<path d="M254.733 51.6642H254.78C255.373 50.8004 256.046 50.3686 257.166 50.3686C258.862 50.3686 259.998 51.6491 259.998 53.4403V58.8031H257.824V53.7609C257.824 52.8821 257.312 52.258 256.401 52.258C255.44 52.258 254.736 53.0257 254.736 54.1453V58.8031H252.561V47.3584H254.736L254.733 51.6642Z" fill="black"/>
<path d="M263.474 51.7113H263.522C264.083 50.8324 264.835 50.3682 265.954 50.3682C267.649 50.3682 268.786 51.6476 268.786 53.4399V58.8005H266.61V53.7595C266.61 52.8795 266.098 52.2555 265.185 52.2555C264.226 52.2555 263.522 53.0242 263.522 54.1449V58.8005H261.346V50.5949H263.474V51.7113Z" fill="black"/>
<path d="M269.735 54.7042C269.735 52.2555 271.48 50.3682 274.024 50.3682C276.569 50.3682 278.312 52.2555 278.312 54.7042C278.312 57.1529 276.568 59.0391 274.024 59.0391C271.481 59.0391 269.735 57.1518 269.735 54.7042ZM276.105 54.7042C276.105 53.103 275.349 52.0158 274.026 52.0158C272.68 52.0158 271.945 53.103 271.945 54.7042C271.945 56.3054 272.68 57.3764 274.026 57.3764C275.352 57.3764 276.105 56.3054 276.105 54.7042Z" fill="black"/>
<path d="M281.534 47.3594H279.358V58.7997H281.534V47.3594Z" fill="black"/>
<path d="M282.575 54.7042C282.575 52.2555 284.319 50.3682 286.863 50.3682C289.407 50.3682 291.152 52.2555 291.152 54.7042C291.152 57.1529 289.408 59.0391 286.863 59.0391C284.318 59.0391 282.575 57.1518 282.575 54.7042ZM288.945 54.7042C288.945 53.103 288.189 52.0158 286.864 52.0158C285.52 52.0158 284.785 53.103 284.785 54.7042C284.785 56.3054 285.52 57.3764 286.864 57.3764C288.192 57.3764 288.945 56.3054 288.945 54.7042Z" fill="black"/>
<path d="M291.942 59.0399H294.101C294.278 59.5528 294.741 59.9533 295.75 59.9533C296.983 59.9533 297.573 59.3606 297.573 58.2409V57.348H297.525C297.046 57.8879 296.42 58.3089 295.382 58.3089C293.556 58.3089 291.765 56.8676 291.765 54.3875C291.765 51.9399 293.237 50.3711 295.318 50.3711C296.342 50.3711 297.093 50.7706 297.585 51.4594H297.617V50.5957H299.715V58.1794C299.715 59.3303 299.347 60.1153 298.738 60.6756C298.051 61.3159 296.994 61.6042 295.779 61.6042C293.539 61.6042 292.162 60.6432 291.937 59.0421M297.682 54.3389C297.682 53.1383 297.043 52.1148 295.73 52.1148C294.626 52.1148 293.895 52.9785 293.895 54.3551C293.895 55.7317 294.631 56.562 295.752 56.562C297.127 56.562 297.688 55.5557 297.688 54.3389" fill="black"/>
<path d="M301.307 59.7767H302.073C302.937 59.7767 303.29 59.3286 303.29 58.656C303.29 58.209 303.13 57.6843 302.668 56.4318L300.458 50.5918H302.746L303.963 54.2886C304.219 55.0444 304.492 56.0798 304.492 56.0798H304.523C304.523 56.0798 304.748 55.0412 305.003 54.2886L306.154 50.5918H308.346L305.482 59.008C304.86 60.8337 304.251 61.4912 302.586 61.4912H301.307V59.7767Z" fill="black"/>
<path d="M311.376 54.7042C311.376 52.2555 313.121 50.3682 315.664 50.3682C318.208 50.3682 319.952 52.2555 319.952 54.7042C319.952 57.1529 318.209 59.0391 315.664 59.0391C313.12 59.0391 311.376 57.1518 311.376 54.7042ZM317.746 54.7042C317.746 53.103 316.99 52.0158 315.666 52.0158C314.341 52.0158 313.586 53.103 313.586 54.7042C313.586 56.3054 314.321 57.3764 315.666 57.3764C317.01 57.3764 317.746 56.3054 317.746 54.7042Z" fill="black"/>
<path d="M320.327 50.5922H321.446V49.8558C321.446 47.8562 322.999 47.1566 325.095 47.3725V49.0536C324.07 49.004 323.624 49.1324 323.624 49.9811V50.5889H325.095V52.0929H323.624V58.7978H321.446V52.0929H320.327V50.5922Z" fill="black"/>
<path d="M328.957 47.3604H333.42C336.477 47.3604 338.444 49.8242 338.444 53.1993C338.444 55.0564 337.82 56.6878 336.62 57.6962C335.771 58.4012 334.669 58.8018 333.228 58.8018H328.957V47.3604ZM333.068 56.8001C335.244 56.8001 336.091 55.471 336.091 53.1993C336.091 50.9276 335.1 49.3437 333.131 49.3437H331.276V56.8001H333.068Z" fill="black"/>
<path d="M344.721 58.8007V57.8397H344.674C344.114 58.5955 343.474 59.0274 342.322 59.0274C340.498 59.0274 339.475 57.8592 339.475 56.068V50.5918H341.634V55.6966C341.634 56.6564 342.066 57.1854 342.994 57.1854C344.019 57.1854 344.642 56.4167 344.642 55.3273V50.5918H346.82V58.7974L344.721 58.8007Z" fill="black"/>
<path d="M350.36 57.7794H350.328V58.8041H348.232V47.3594H350.408V51.5831H350.457C350.905 50.8943 351.609 50.3674 352.744 50.3674C354.808 50.3674 356.28 52.1435 356.28 54.7034C356.28 57.3594 354.871 59.0383 352.808 59.0383C351.655 59.0383 350.839 58.5428 350.36 57.7751M354.072 54.7034C354.072 53.1821 353.465 52.1273 352.248 52.1273C350.872 52.1273 350.36 53.2318 350.36 54.7509C350.36 56.27 351.111 57.2148 352.328 57.2148C353.447 57.2148 354.072 56.2862 354.072 54.7034Z" fill="black"/>
<path d="M362.206 57.8876H362.175C361.758 58.5128 361.167 58.9932 359.758 58.9932C358.078 58.9932 356.894 58.1122 356.894 56.4808C356.894 54.6712 358.366 54.0968 360.189 53.8409C361.549 53.6488 362.175 53.5365 362.175 52.9124C362.175 52.3197 361.711 51.9353 360.797 51.9353C359.774 51.9353 359.277 52.3035 359.214 53.0884H357.278C357.342 51.647 358.413 50.3838 360.815 50.3838C363.279 50.3838 364.27 51.4883 364.27 53.4069V57.5831C364.27 58.2072 364.367 58.5754 364.557 58.72V58.7999H362.461C362.334 58.6391 362.255 58.2601 362.206 57.8865M362.222 55.9031V54.6712C361.84 54.8969 361.25 55.0243 360.703 55.1517C359.566 55.4076 359.005 55.6645 359.005 56.4333C359.005 57.202 359.519 57.4719 360.286 57.4719C361.533 57.4719 362.222 56.7054 362.222 55.9042" fill="black"/>
<path d="M365.65 47.3594H367.826V49.3115H365.65V47.3594ZM365.65 50.592H367.826V58.7976H365.65V50.592Z" fill="black"/>
</svg>
