<svg width="450" height="90" viewBox="0 0 450 90" fill="none" xmlns="http://www.w3.org/2000/svg">
<g clip-path="url(#clip0_119_842)">
<path d="M205.251 57.0711L205.227 41.9771L205.217 35.7826C205.217 35.4156 205.21 31.168 205.21 31.168C205.21 31.168 205.206 28.1608 205.203 27.3861C203.22 27.3861 200.972 27.3215 199.265 29.0341C197.636 30.6753 197.921 32.7481 197.925 35.7894C197.925 37.6787 197.935 41.9873 197.935 41.9873L197.942 45.647L197.993 57.0847L205.254 57.0745L205.251 57.0711Z" fill="black"/>
<path d="M255.439 41.723C254.562 40.1259 253.334 38.8925 251.759 38.0191C250.185 37.1492 248.358 36.7143 246.28 36.7177C244.968 36.7177 243.716 36.9216 242.525 37.3191C241.339 37.7167 240.345 38.257 239.557 38.94C239.557 37.9104 239.553 36.755 239.553 35.7289C239.553 35.3618 239.546 31.1143 239.546 31.1143C239.546 31.1143 239.543 28.1071 239.539 27.3323C237.577 27.3323 235.353 27.2678 233.659 28.9804C232.047 30.6216 232.329 32.6945 232.333 35.7357C232.333 37.625 232.343 41.9337 232.343 41.9337L232.349 45.5933L232.363 57.0311L239.298 57.0209L239.335 55.0534C241.169 56.7728 243.498 57.6291 246.314 57.6257C248.366 57.6257 250.185 57.1908 251.77 56.3243C253.355 55.4611 254.583 54.2446 255.457 52.6714C256.331 51.0981 256.762 49.2734 256.759 47.1972C256.759 45.1482 256.317 43.3235 255.436 41.7263L255.439 41.723ZM247.988 50.7515C247.086 51.6146 245.896 52.0462 244.42 52.0462C243.325 52.0462 242.339 51.7709 241.464 51.2102C240.587 50.653 239.958 49.8952 239.573 48.937L239.567 45.454C239.948 44.4957 240.577 43.738 241.451 43.1773C242.325 42.6166 243.308 42.3346 244.403 42.3312C245.879 42.3312 247.07 42.7628 247.974 43.6361C248.878 44.5093 249.331 45.6987 249.334 47.2006C249.334 48.7025 248.889 49.885 247.988 50.7481V50.7515Z" fill="black"/>
<path d="M186.285 52.7869C187.023 52.4436 187.581 51.9985 187.965 51.4514V49.7286C186.785 48.9369 185.445 48.5427 183.938 48.5461C182.979 48.5461 182.241 48.7534 181.724 49.1645C181.204 49.5757 180.945 50.1772 180.949 50.969C180.949 51.7063 181.204 52.2806 181.711 52.6884C182.217 53.0995 182.949 53.3034 183.908 53.3C184.755 53.3 185.547 53.1267 186.289 52.7835M175.807 55.9606C174.286 54.7747 173.524 53.1165 173.521 50.9825C173.518 48.7704 174.245 47.068 175.708 45.8753C177.17 44.686 179.269 44.0879 182.003 44.0811C183.071 44.0811 184.139 44.1933 185.204 44.4243C186.272 44.6554 187.19 44.9884 187.955 45.3418C187.965 44.3394 187.904 43.6801 187.115 43.0923C185.581 41.7467 180.432 41.3899 176.929 42.6506L176.885 42.6642C176.885 40.5234 176.803 39.3817 177.704 38.4744C178.884 37.2919 180.252 36.8604 184.323 36.8536C187.989 36.8468 190.479 37.5433 192.356 39.0011C194.23 40.4589 195.172 42.5011 195.175 45.1243L195.189 54.1223C195.193 56.5349 194.352 57.0955 192.353 57.0989L187.924 57.1058V55.4237C187.931 55.4815 187.683 55.7194 187.635 55.7635C186.72 56.6402 185.622 57.2009 184.384 57.4727C183.01 57.7752 181.534 57.8057 180.139 57.6358C178.952 57.4931 177.783 57.1635 176.738 56.5756C176.412 56.3922 176.102 56.1849 175.807 55.9573" fill="black"/>
<path d="M166.948 42.0352L172.077 42.0284V39.6056C172.07 38.1071 170.852 36.9653 169.349 36.9687H166.938C166.938 36.2722 166.931 32.3712 166.931 32.3712C166.931 32.3712 166.927 29.364 166.924 28.5892C164.941 28.5892 162.693 28.5247 160.986 30.2373C159.357 31.8785 159.642 33.9411 159.646 36.9857L154.503 36.9925V39.3406C154.51 40.8391 155.728 42.0556 157.228 42.0522H159.653L159.659 45.7084L159.7 50.0172C159.731 54.3428 163.254 57.836 167.587 57.8292C169.128 57.8292 170.563 57.3807 171.774 56.6161L171.767 51.8963C168.873 52.936 166.958 50.8361 166.955 48.2366C166.955 47.8866 166.944 42.0386 166.944 42.0386L166.948 42.0352Z" fill="black"/>
<path d="M292.167 41.8379L297.296 41.831V39.4083C297.289 37.9097 296.071 36.768 294.569 36.7715H292.157C292.157 36.0748 292.15 32.1739 292.15 32.1739C292.15 32.1739 292.147 29.1666 292.143 28.3919C290.161 28.3919 287.913 28.3273 286.205 30.0399C284.576 31.6812 284.862 33.7438 284.865 36.7884L279.723 36.7952V39.1432C279.73 40.6418 280.947 41.8583 282.447 41.8549H284.872L284.879 45.5112L284.92 49.8198C284.95 54.1455 288.474 57.6387 292.806 57.6319C294.347 57.6319 295.782 57.1833 296.994 56.4188L296.986 51.6989C294.092 52.7387 292.177 50.6387 292.174 48.0392C292.174 47.6893 292.164 41.8413 292.164 41.8413L292.167 41.8379Z" fill="black"/>
<path d="M220.564 52.7332C221.302 52.39 221.86 51.9448 222.244 51.3978V49.675C221.065 48.8832 219.724 48.489 218.218 48.4924C217.258 48.4924 216.52 48.6997 216.004 49.1109C215.483 49.5221 215.225 50.1235 215.228 50.9152C215.228 51.6526 215.483 52.2269 215.99 52.6346C216.497 53.0458 217.228 53.2496 218.188 53.2462C219.034 53.2462 219.826 53.073 220.568 52.7298M210.086 55.9069C208.566 54.721 207.804 53.0628 207.8 50.9288C207.797 48.7949 208.525 47.0143 209.987 45.8216C211.45 44.6323 213.548 44.0343 216.282 44.0275C217.351 44.0275 218.418 44.1396 219.483 44.3707C220.551 44.6017 221.469 44.9347 222.234 45.2881C222.244 44.2857 222.183 43.6265 221.394 43.0387C219.86 41.693 214.711 41.3362 211.208 42.5969L211.164 42.6105C211.164 40.4697 211.082 39.328 211.984 38.4207C213.164 37.2382 214.531 36.8066 218.602 36.7999C222.268 36.7931 224.758 37.4897 226.635 38.9474C228.51 40.4051 229.452 42.4474 229.455 45.0706L229.468 54.0686C229.472 56.4812 228.632 57.0419 226.632 57.0453L222.204 57.0521V55.37C222.21 55.4278 221.962 55.6657 221.915 55.7099C221 56.5865 219.901 57.1472 218.663 57.419C217.289 57.7215 215.813 57.7521 214.419 57.5821C213.232 57.4395 212.062 57.1099 211.018 56.522C210.691 56.3385 210.382 56.1312 210.086 55.9035" fill="black"/>
<path d="M270.588 52.6541C271.326 52.3109 271.884 51.8658 272.268 51.3187V49.5959C271.087 48.8041 269.748 48.41 268.241 48.4134C267.282 48.4134 266.544 48.6206 266.027 49.0318C265.506 49.443 265.248 50.0445 265.252 50.8361C265.252 51.5735 265.506 52.1478 266.013 52.5555C266.52 52.9667 267.251 53.1706 268.21 53.1672C269.057 53.1672 269.85 52.9939 270.591 52.6507M260.109 55.8278C258.589 54.642 257.827 52.9838 257.823 50.8497C257.82 48.7158 258.548 46.9353 260.01 45.7425C261.473 44.5532 263.571 43.9552 266.306 43.9484C267.373 43.9484 268.442 44.0605 269.506 44.2916C270.574 44.5226 271.493 44.8556 272.257 45.209C272.268 44.2066 272.207 43.5474 271.417 42.9596C269.884 41.6139 264.734 41.2571 261.231 42.5179L261.187 42.5314C261.187 40.3906 261.106 39.2489 262.006 38.3416C263.187 37.1591 264.554 36.7276 268.625 36.7208C272.291 36.714 274.781 37.4106 276.659 38.8684C278.532 40.3261 279.475 42.3683 279.478 44.9916L279.492 53.9895C279.495 56.4021 278.655 56.9628 276.655 56.9662L272.227 56.973V55.291C272.234 55.3488 271.986 55.5866 271.938 55.6308C271.023 56.5075 269.924 57.0682 268.687 57.34C267.313 57.6424 265.836 57.673 264.442 57.5031C263.255 57.3604 262.085 57.0308 261.041 56.4429C260.715 56.2594 260.405 56.0521 260.109 55.8244" fill="black"/>
</g>
<defs>
<clipPath id="clip0_119_842">
<rect width="177" height="60" fill="white" transform="translate(137 15)"/>
</clipPath>
</defs>
</svg>
