<svg width="83" height="11" viewBox="0 0 83 11" fill="none" xmlns="http://www.w3.org/2000/svg">
<g clip-path="url(#clip0_297_14)">
<path d="M22.6981 4.32366C22.7161 4.72519 22.5808 5.11854 22.3194 5.42392C21.9497 5.82957 21.3915 6.03598 20.634 6.03598H18.1338V0.0195312H20.4528C21.5799 0.0195312 22.1489 0.543638 22.1489 1.59005C22.1585 1.86268 22.0966 2.13307 21.9694 2.37442C21.8528 2.56642 21.6883 2.72477 21.492 2.83391C21.9694 2.93442 22.2943 3.13186 22.4666 3.41186C22.6241 3.68963 22.7046 4.00438 22.6999 4.32366M20.6969 1.79646C20.7059 1.67799 20.6742 1.55997 20.607 1.46202C20.5397 1.36406 20.441 1.29207 20.3271 1.258C20.2158 1.22556 20.1002 1.21042 19.9843 1.21313H19.6953V2.39416H19.9843C20.0891 2.40526 20.195 2.39317 20.2946 2.35873C20.3941 2.3243 20.4849 2.26838 20.5604 2.19493C20.6538 2.08437 20.7025 1.94287 20.6969 1.79826M21.1384 4.22853C21.1384 3.86955 20.9589 3.6793 20.5999 3.61647C20.4053 3.59222 20.2091 3.58262 20.013 3.58776H19.6971V4.84417H20.0399C20.3269 4.86709 20.6151 4.81773 20.8781 4.70058C20.9606 4.6533 21.0285 4.58427 21.0744 4.50102C21.1203 4.41777 21.1424 4.32351 21.1384 4.22853Z" fill="#383535"/>
<path d="M30.7889 6.03598H29.1214L28.7319 4.98956H26.5781L26.1635 6.03598H24.5122L26.8222 0.0195312H28.5273L30.7889 6.03598ZM28.3173 3.79955L27.6766 1.87903L27.0089 3.79955H28.3173Z" fill="#383535"/>
<path d="M38.2396 6.03598H36.6798V3.5375H34.4147V6.03598H32.855V0.0195312H34.4147V2.34749H36.6798V0.0195312H38.2396V6.03598Z" fill="#383535"/>
<path d="M46.5836 6.03598H44.9072L44.5195 4.98956H42.3657L41.9493 6.03598H40.2998L42.608 0.0195312H44.3131L46.5836 6.03598ZM44.1121 3.79955L43.4713 1.87903L42.8036 3.79955H44.1121Z" fill="#383535"/>
<path d="M53.6359 6.03598H51.6974L50.2095 3.73673V6.03598H48.6479V0.0195312H51.0746C51.7926 0.0195312 52.3113 0.236712 52.6541 0.660304C52.9303 1.00153 53.0771 1.42933 53.0687 1.86826C53.0826 2.10375 53.0471 2.33953 52.9646 2.56052C52.882 2.78151 52.7543 2.98283 52.5895 3.1516C52.3588 3.36851 52.0712 3.51542 51.7602 3.57519L53.6359 6.03598ZM51.4444 1.9598C51.4454 1.85854 51.4249 1.75821 51.3844 1.66541C51.3439 1.57261 51.2842 1.48943 51.2092 1.42133C51.0046 1.26433 50.7481 1.19059 50.4913 1.21492H50.2041V2.72083H50.4913C50.7484 2.74557 51.0052 2.67108 51.2092 2.51262C51.2842 2.44226 51.3438 2.35714 51.3843 2.26261C51.4247 2.16809 51.4452 2.06621 51.4444 1.96339" fill="#383535"/>
<path d="M61.6733 6.03598H60.1135L57.2345 2.34749V6.03598H55.6748V0.0195312H57.2345L60.1135 3.70083V0.0195312H61.6733V6.03598Z" fill="#383535"/>
<path d="M70.0157 6.03598H68.3483L67.9606 4.98956H65.8068L65.3922 6.03598H63.7427L66.0509 0.0195312H67.756L70.0157 6.03598ZM67.5442 3.79955L66.8963 1.87903L66.2286 3.79955H67.5442Z" fill="#383535"/>
<path d="M78.0805 6.03598H76.5207L73.6436 2.34749V6.03598H72.082V0.0195312H73.6436L76.5207 3.70083V0.0195312H78.0805V6.03598Z" fill="#383535"/>
<path d="M82.2726 0.0195312H80.7129V6.03598H82.2726V0.0195312Z" fill="#383535"/>
<path d="M19.6647 8.45034L18.9754 9.91496H20.3485L19.6647 8.45034ZM21.2011 10.9632H20.8421L20.4831 10.2039H18.8408L18.4818 10.9632H18.1318L19.5067 8.06982H19.8262L21.2011 10.9632Z" fill="#1476A5"/>
<path d="M27.4079 9.0752C27.3498 8.93991 27.265 8.8178 27.1584 8.71622C27.0444 8.61012 26.9101 8.52829 26.7635 8.47571C26.5981 8.41454 26.4229 8.38412 26.2466 8.38597H25.5394V10.6601H26.2412C26.4173 10.6622 26.5923 10.633 26.7581 10.5739C26.9047 10.5213 27.039 10.4395 27.153 10.3334C27.2596 10.2319 27.3445 10.1098 27.4025 9.97444C27.4624 9.83315 27.4924 9.68096 27.4904 9.52751C27.4918 9.37411 27.4619 9.22204 27.4025 9.08058M27.7274 10.0875C27.6515 10.2621 27.5388 10.4182 27.3971 10.5452C27.2485 10.6775 27.0761 10.7804 26.8892 10.8485C26.6817 10.9244 26.4621 10.9621 26.2412 10.9598H25.2002V8.08801H26.2412C26.4619 8.08548 26.6812 8.12194 26.8892 8.19571C27.0764 8.26246 27.2489 8.36486 27.3971 8.49725C27.5388 8.62364 27.6514 8.77916 27.7274 8.95315C27.8055 9.13133 27.8453 9.32397 27.844 9.51854C27.8452 9.71425 27.8055 9.90806 27.7274 10.0875Z" fill="#1476A5"/>
<path d="M34.0472 8.08789H34.4133L33.1174 10.9812H32.8159L31.52 8.08789H31.8987L32.9721 10.563L34.0472 8.08789Z" fill="#1476A5"/>
<path d="M40.5906 8.38405H38.7509V9.36405H40.3967V9.66021H38.7509V10.6653H40.6121V10.9615H38.4116V8.08789H40.5906V8.38405Z" fill="#1476A5"/>
<path d="M46.5445 8.53661C46.3753 8.42651 46.1752 8.37366 45.9737 8.38584H45.0422V9.5561H45.9701C46.0751 9.5567 46.1795 9.5428 46.2807 9.51482C46.369 9.49102 46.4523 9.4515 46.5265 9.39815C46.5933 9.35132 46.6485 9.28995 46.6881 9.21866C46.7285 9.14115 46.7488 9.05477 46.7473 8.96738C46.7509 8.8858 46.7342 8.80461 46.6989 8.73102C46.6635 8.65743 46.6104 8.59373 46.5445 8.54558M46.7778 10.9687L45.9037 9.85226H45.0422V10.9687H44.7012V8.09686H45.9971C46.1494 8.09451 46.3013 8.11508 46.4476 8.15789C46.5722 8.19549 46.6885 8.25639 46.7904 8.33737C46.8834 8.40952 46.9584 8.50231 47.0094 8.6084C47.0637 8.72014 47.0908 8.84316 47.0883 8.96738C47.0898 9.07748 47.069 9.18675 47.0273 9.28866C46.9879 9.38142 46.9298 9.4651 46.8568 9.53456C46.7811 9.609 46.693 9.66973 46.5966 9.71405C46.4929 9.76218 46.3829 9.79542 46.2699 9.81277L47.196 10.9866L46.7778 10.9687Z" fill="#1476A5"/>
<path d="M52.3257 10.9612H51.9864V8.38731H50.9741V8.08936H53.338V8.38731H52.3257V10.9612Z" fill="#1476A5"/>
<path d="M57.7551 8.08789H57.4141V10.9597H57.7551V8.08789Z" fill="#1476A5"/>
<path d="M62.3375 8.98858C62.3654 9.04853 62.4087 9.09996 62.4631 9.13755C62.5395 9.19127 62.6237 9.23304 62.7126 9.2614C62.8463 9.30598 62.9831 9.34077 63.1219 9.36551C63.3883 9.40859 63.6419 9.50969 63.8649 9.66166C63.9432 9.72367 64.0056 9.80334 64.0471 9.89413C64.0886 9.98491 64.1079 10.0842 64.1036 10.184C64.1054 10.301 64.0789 10.4168 64.0265 10.5214C63.9762 10.6219 63.9045 10.7101 63.8165 10.7799C63.7199 10.855 63.6095 10.9105 63.4916 10.9432C63.3577 10.9832 63.2185 11.0026 63.0788 11.0006C62.8531 11.0039 62.6287 10.9662 62.4165 10.8894C62.2075 10.8097 62.0142 10.6936 61.8457 10.5465L62.0575 10.3078C62.1999 10.4341 62.3609 10.5376 62.5349 10.6147C62.712 10.6844 62.9011 10.7185 63.0913 10.7153C63.2645 10.7236 63.4358 10.6758 63.5795 10.5788C63.6368 10.5385 63.6832 10.4846 63.7145 10.422C63.7458 10.3593 63.7611 10.2899 63.759 10.2199C63.7599 10.1584 63.7483 10.0973 63.7249 10.0404C63.6985 9.98206 63.657 9.93187 63.6047 9.895C63.5314 9.84247 63.4502 9.80188 63.3642 9.77474C63.2367 9.7321 63.1066 9.69792 62.9747 9.67243C62.8211 9.6422 62.6699 9.60081 62.5224 9.54858C62.4083 9.50938 62.3011 9.45244 62.2047 9.37986C62.1272 9.31891 62.0656 9.24008 62.0252 9.15012C61.9821 9.05178 61.9613 8.94514 61.9642 8.83781C61.9631 8.72815 61.9884 8.61983 62.0378 8.52191C62.0873 8.42452 62.1578 8.33931 62.2442 8.27242C62.339 8.20079 62.4452 8.14558 62.5583 8.10909C62.6865 8.06856 62.8204 8.04857 62.9549 8.04986C63.3387 8.03616 63.7147 8.15961 64.0157 8.39806L63.8165 8.64755C63.6895 8.54546 63.5463 8.46537 63.3929 8.41063C63.2492 8.36066 63.098 8.33576 62.946 8.33704C62.8567 8.33626 62.7679 8.34835 62.6821 8.37293C62.6095 8.39448 62.541 8.42783 62.4793 8.47165C62.4256 8.51098 62.3814 8.5619 62.3501 8.62063C62.3208 8.67593 62.3054 8.73753 62.3052 8.80012C62.3048 8.8616 62.3163 8.92257 62.3393 8.97961" fill="#1476A5"/>
<path d="M68.5692 8.08789H68.23V10.9597H68.5692V8.08789Z" fill="#1476A5"/>
<path d="M75.0759 8.08789H75.4079V10.9597H75.1369L73.1895 8.60661V10.9597H72.8574V8.08789H73.1769L75.0759 10.3907V8.08789Z" fill="#1476A5"/>
<path d="M81.7542 10.8805C81.5349 10.9693 81.2999 11.0133 81.0632 11.0097C80.8448 11.0136 80.6277 10.9746 80.4242 10.8948C80.2436 10.8233 80.0793 10.7158 79.9414 10.5789C79.8075 10.4446 79.703 10.2838 79.6345 10.1069C79.564 9.92242 79.5287 9.72639 79.5304 9.52893C79.5265 9.23743 79.6098 8.95143 79.7698 8.7077C79.9297 8.46397 80.1589 8.27365 80.4278 8.16123C80.623 8.07817 80.8332 8.03661 81.0453 8.03917C81.1612 8.03864 81.277 8.04705 81.3917 8.0643C81.4914 8.07926 81.5894 8.1039 81.6842 8.13789C81.7729 8.16959 81.8583 8.20986 81.9391 8.25815C82.0198 8.3075 82.0971 8.36206 82.1706 8.42148L81.9499 8.66738C81.894 8.61806 81.8339 8.57363 81.7704 8.53456C81.7056 8.49348 81.6371 8.45862 81.5658 8.43046C81.4879 8.40069 81.4074 8.37845 81.3253 8.36405C81.2293 8.34692 81.132 8.3385 81.0345 8.33892C80.8805 8.3378 80.728 8.36828 80.5863 8.42849C80.4446 8.48869 80.3167 8.57733 80.2107 8.68892C80.1091 8.79819 80.0288 8.9254 79.9737 9.06405C79.9167 9.20991 79.8875 9.36515 79.8876 9.52175C79.886 9.68532 79.9146 9.84778 79.9719 10.001C80.0257 10.1423 80.1069 10.2716 80.2107 10.3815C80.3172 10.49 80.4449 10.5756 80.5858 10.6328C80.7436 10.6943 80.9118 10.7247 81.0812 10.7225C81.3949 10.7225 81.7002 10.6212 81.9517 10.4335V9.71559H81.0345V9.4338H82.2783V10.5753C82.1227 10.7049 81.9477 10.809 81.7596 10.8841" fill="#1476A5"/>
<path fill-rule="evenodd" clip-rule="evenodd" d="M2.57704 8.40884L2.59499 6.14729C3.13345 6.14729 7.93831 6.19036 8.12318 6.19395C8.76753 6.19395 9.05651 6.44703 9.11035 7.06627C9.23061 8.4573 8.65087 9.39961 7.57215 10.1176L7.14677 10.3653C6.99959 10.4694 7.08933 10.3868 7.00318 10.4963C8.68856 10.5196 10.6198 10.6506 11.3683 8.95448C11.7273 8.13602 11.8727 6.2478 10.9034 5.476C10.5552 5.19779 10.365 5.18702 9.95394 4.97882C10.5732 4.77241 10.8514 4.57676 11.0614 3.9665C11.2346 3.32646 11.2658 2.65629 11.1529 2.0029C10.9088 0.784177 10.0293 0.265457 8.69215 0.107507C7.40164 -0.0450581 1.87166 0.0536602 0.0893555 0.0393012V8.40704L2.57704 8.40884ZM7.86113 4.28061C7.64754 4.39907 3.10473 4.39907 2.57704 4.3201L2.60037 1.98675C2.95935 1.92213 7.84856 1.92931 7.87908 2.03521C9.07984 2.08008 8.90753 4.20881 7.86113 4.28779" fill="#1476A5"/>
<path fill-rule="evenodd" clip-rule="evenodd" d="M0.00179388 10.7154C1.94025 11.0223 4.06896 11.1641 5.86921 10.4803C7.30511 9.9418 8.89715 8.46282 8.79485 6.81152C6.68767 10.2021 3.47845 10.0423 0 8.90436L0.00179388 10.7154Z" fill="#1476A5"/>
<path d="M14.8253 0H14.7051V11.0098H14.8253V0Z" fill="#383535"/>
</g>
<defs>
<clipPath id="clip0_297_14">
<rect width="82.16" height="10.99" fill="white"/>
</clipPath>
</defs>
</svg>
