<svg id="Layer_1" data-name="Layer 1" xmlns="http://www.w3.org/2000/svg" viewBox="0 0 10.84 10.2"><defs><style>.cls-1{fill:#0972a5;fill-rule:evenodd;}</style></defs><path class="cls-1" d="M2.4,7.81V5.7l5.15,0c.6,0,.87.23.92.81A2.87,2.87,0,0,1,7.05,9.4l-.4.23c-.13.1-.05,0-.13.13,1.57,0,3.37.14,4.06-1.44.34-.76.47-2.52-.43-3.24a3.67,3.67,0,0,0-.88-.46,1.33,1.33,0,0,0,1-1,4.29,4.29,0,0,0,.08-1.82C10.16.71,9.34.23,8.09.08S1.74,0,.08,0V7.81ZM7.32,4A44.2,44.2,0,0,1,2.4,4l0-2.18c.33-.06,4.89-.05,4.91.05,1.12,0,1,2,0,2.09"/><path class="cls-1" d="M0,10a10.94,10.94,0,0,0,5.46-.22C6.8,9.23,8.28,7.86,8.19,6.32c-2,3.16-4.95,3-8.19,1.95Z"/></svg>