<svg id="Layer_1" data-name="Layer 1" xmlns="http://www.w3.org/2000/svg" viewBox="0 0 82.16 10.99"><defs><style>.cls-1,.cls-2{fill:#fff;}.cls-2{fill-rule:evenodd;}</style></defs><path class="cls-1" d="M22.66,4.32a1.59,1.59,0,0,1-.37,1.1A2.19,2.19,0,0,1,20.6,6H18.11V0h2.31c1.13,0,1.7.52,1.7,1.57a1.66,1.66,0,0,1-.18.78,1.42,1.42,0,0,1-.48.46,1.4,1.4,0,0,1,1,.58,1.78,1.78,0,0,1,.23.91m-2-2.53a.52.52,0,0,0-.37-.54,1.53,1.53,0,0,0-.35,0h-.28V2.39H20a.73.73,0,0,0,.58-.2.59.59,0,0,0,.14-.4m.44,2.43a.58.58,0,0,0-.54-.62l-.59,0h-.31V4.84H20a1.74,1.74,0,0,0,.84-.15.5.5,0,0,0,.26-.47"/><path class="cls-1" d="M30.74,6H29.08l-.39-1H26.54l-.42,1H24.48l2.3-6h1.7ZM28.28,3.79l-.65-1.91L27,3.79Z"/><polygon class="cls-1" points="38.19 6.03 36.63 6.03 36.63 3.53 34.37 3.53 34.37 6.03 32.81 6.03 32.81 0.02 34.37 0.02 34.37 2.34 36.63 2.34 36.63 0.02 38.19 0.02 38.19 6.03"/><path class="cls-1" d="M46.52,6H44.85l-.39-1H42.31L41.9,6H40.25l2.3-6h1.71ZM44.05,3.79,43.4,1.88l-.67,1.91Z"/><path class="cls-1" d="M53.56,6H51.62l-1.48-2.3V6H48.58V0H51a1.92,1.92,0,0,1,1.58.64A1.85,1.85,0,0,1,53,1.87a1.71,1.71,0,0,1-.47,1.28,1.76,1.76,0,0,1-.83.42ZM51.37,2a.71.71,0,0,0-.23-.54,1,1,0,0,0-.71-.21h-.29v1.5h.29a1.06,1.06,0,0,0,.71-.2A.78.78,0,0,0,51.37,2"/><polygon class="cls-1" points="61.59 6.03 60.03 6.03 57.15 2.34 57.15 6.03 55.59 6.03 55.59 0.02 57.15 0.02 60.03 3.69 60.03 0.02 61.59 0.02 61.59 6.03"/><path class="cls-1" d="M69.92,6H68.25l-.39-1H65.71L65.3,6H63.65L66,0h1.71ZM67.45,3.79,66.8,1.88l-.67,1.91Z"/><polygon class="cls-1" points="77.97 6.03 76.41 6.03 73.54 2.34 73.54 6.03 71.98 6.03 71.98 0.02 73.54 0.02 76.41 3.69 76.41 0.02 77.97 0.02 77.97 6.03"/><rect class="cls-1" x="80.6" y="0.02" width="1.56" height="6.01"/><path class="cls-1" d="M19.63,8.44h0L19,9.9h1.37Zm1.54,2.5H20.8l-.35-.75H18.81l-.35.75h-.35l1.37-2.88h.32Z"/><path class="cls-1" d="M27.37,9.07h0a1,1,0,0,0-.25-.36,1.09,1.09,0,0,0-.4-.25,1.6,1.6,0,0,0-.51-.08H25.5v2.27h.71a1.36,1.36,0,0,0,.51-.09,1.22,1.22,0,0,0,.4-.24,1,1,0,0,0,.25-.36,1.1,1.1,0,0,0,.09-.45,1.12,1.12,0,0,0-.09-.44m.32,1a1.39,1.39,0,0,1-.33.46,1.44,1.44,0,0,1-.51.3,1.66,1.66,0,0,1-.64.11H25.16V8.08h1.05a1.66,1.66,0,0,1,.64.11,1.44,1.44,0,0,1,.51.3,1.35,1.35,0,0,1,.45,1,1.31,1.31,0,0,1-.12.56"/><polygon class="cls-1" points="34 8.08 34.36 8.08 33.07 10.96 32.77 10.96 31.47 8.08 31.85 8.08 32.92 10.55 34 8.08"/><polygon class="cls-1" points="40.53 8.37 38.7 8.37 38.7 9.35 40.34 9.35 40.34 9.65 38.7 9.65 38.7 10.65 40.55 10.65 40.55 10.95 38.36 10.95 38.36 8.08 40.53 8.08 40.53 8.37"/><path class="cls-1" d="M46.48,8.53h0a1,1,0,0,0-.57-.15H45V9.54h.92a1,1,0,0,0,.31,0,.82.82,0,0,0,.25-.11.7.7,0,0,0,.16-.19A.54.54,0,0,0,46.68,9a.5.5,0,0,0-.2-.42m.23,2.41-.87-1.11H45v1.11h-.34V8.08h1.29a1.53,1.53,0,0,1,.45.06,1.08,1.08,0,0,1,.34.17.8.8,0,0,1,.22.27.82.82,0,0,1,.08.35.88.88,0,0,1-.06.33.81.81,0,0,1-.17.24,1,1,0,0,1-.26.18,1.59,1.59,0,0,1-.33.09l.93,1.17Z"/><polygon class="cls-1" points="52.25 10.95 51.91 10.95 51.91 8.38 50.9 8.38 50.9 8.08 53.26 8.08 53.26 8.38 52.25 8.38 52.25 10.95"/><rect class="cls-1" x="57.33" y="8.08" width="0.34" height="2.87"/><path class="cls-1" d="M62.25,9a.29.29,0,0,0,.12.15,1,1,0,0,0,.25.13l.41.1a1.72,1.72,0,0,1,.74.3.62.62,0,0,1,.24.52.8.8,0,0,1-.07.34.85.85,0,0,1-.21.25.86.86,0,0,1-.33.17A1.31,1.31,0,0,1,63,11a1.76,1.76,0,0,1-.66-.12,1.69,1.69,0,0,1-.57-.34l.21-.24a1.86,1.86,0,0,0,.48.31,1.35,1.35,0,0,0,.55.1.81.81,0,0,0,.49-.14.42.42,0,0,0,.18-.35.58.58,0,0,0,0-.19.39.39,0,0,0-.12-.14.67.67,0,0,0-.24-.12,2.18,2.18,0,0,0-.39-.1,3.1,3.1,0,0,1-.45-.13,1.06,1.06,0,0,1-.32-.16.8.8,0,0,1-.19-.23.79.79,0,0,1-.06-.32A.65.65,0,0,1,62,8.51a.69.69,0,0,1,.2-.25,1.07,1.07,0,0,1,.32-.16A1.23,1.23,0,0,1,62.86,8a1.69,1.69,0,0,1,.58.08,1.87,1.87,0,0,1,.48.26l-.2.25a1.46,1.46,0,0,0-.42-.23,1.32,1.32,0,0,0-.44-.08.77.77,0,0,0-.27,0,.54.54,0,0,0-.2.1.37.37,0,0,0-.13.15.35.35,0,0,0,0,.18.48.48,0,0,0,0,.18"/><rect class="cls-1" x="68.13" y="8.08" width="0.34" height="2.87"/><polygon class="cls-1" points="74.97 8.08 75.3 8.08 75.3 10.94 75.03 10.94 73.08 8.59 73.08 10.94 72.75 10.94 72.75 8.08 73.07 8.08 74.97 10.38 74.97 8.08"/><path class="cls-1" d="M81.64,10.87A1.92,1.92,0,0,1,81,11a1.62,1.62,0,0,1-.64-.11,1.35,1.35,0,0,1-.48-.32,1.25,1.25,0,0,1-.31-.47,1.57,1.57,0,0,1-.1-.58A1.36,1.36,0,0,1,79.53,9a1.5,1.5,0,0,1,.3-.48,1.75,1.75,0,0,1,.48-.32A1.56,1.56,0,0,1,80.93,8l.34,0a1.32,1.32,0,0,1,.3.08,1.15,1.15,0,0,1,.25.12,1.19,1.19,0,0,1,.23.16l-.22.24-.18-.13-.2-.1-.25-.07a1.28,1.28,0,0,0-.29,0,1.18,1.18,0,0,0-.46.09,1,1,0,0,0-.36.26,1,1,0,0,0-.23.37,1.18,1.18,0,0,0-.09.46,1.51,1.51,0,0,0,.08.48,1.36,1.36,0,0,0,.24.38,1.2,1.2,0,0,0,.87.34,1.33,1.33,0,0,0,.49-.09,1.24,1.24,0,0,0,.38-.2V9.7h-.92V9.42h1.25v1.14a2.17,2.17,0,0,1-.52.31"/><path class="cls-2" d="M2.57,8.4l0-2.26,5.52,0a.85.85,0,0,1,1,.88,3.07,3.07,0,0,1-1.54,3l-.43.25c-.14.1,0,0-.14.13,1.68,0,3.61.16,4.36-1.54.36-.82.51-2.7-.46-3.47a4.29,4.29,0,0,0-1-.5A1.39,1.39,0,0,0,11,4a4.62,4.62,0,0,0,.1-2C10.89.78,10,.26,8.68.11S1.86.05.09,0V8.4ZM7.85,4.27a45.88,45.88,0,0,1-5.28,0L2.6,2C3,1.91,7.84,1.91,7.87,2c1.2,0,1,2.17,0,2.25"/><path class="cls-2" d="M0,10.7a11.71,11.71,0,0,0,5.86-.23c1.43-.55,3-2,2.92-3.67C6.68,10.19,3.47,10,0,8.89Z"/><rect class="cls-1" x="14.68" width="0.12" height="10.99"/></svg>